<svg width="152" height="152" fill="none" xmlns="http://www.w3.org/2000/svg"><path fill="#81B3D3" d="M0 0h152v152H0z"/><path d="M52.254 93.356c.102.103.153.204.153.307.103 0 .204.05.306.153 2.757 3.057 5.873 5.912 9.345 8.563 3.472 2.548 7.456 3.924 11.95 4.128.102 0 .204.053.305.154h.46c.102 0 .205.05.307.153h1.684c.512-.103.971-.204 1.38-.307a12.793 12.793 0 0 0 4.596-1.834c1.53-.918 2.706-2.04 3.523-3.365l.307-.612.306-.611c.204-.714.358-1.376.46-1.988.102-.611.154-1.172.154-1.682 0-2.752-1.227-5.046-3.677-6.882a26.328 26.328 0 0 0-7.66-4.435 22.204 22.204 0 0 0-3.218-.916c-.96-.29-1.931-.546-2.91-.766h-.306c-.103-.1-.205-.152-.306-.152a50.178 50.178 0 0 1-14.095-5.811c-4.392-2.753-7.404-6.678-9.039-11.776a131.61 131.61 0 0 1-.92-3.212 36.637 36.637 0 0 1-.458-3.516 4.483 4.483 0 0 1-.153-1.071v-3.67c.101-.816.254-1.63.459-2.447.317-2.083.83-4.13 1.531-6.117.715-2.038 1.635-3.874 2.758-5.504 3.268-5.405 7.456-9.279 12.562-11.623C67.268 26.172 72.68 25 78.298 25c1.328 0 2.655.101 3.983.305 1.435.103 2.865.256 4.289.459a52.496 52.496 0 0 1 10.877 3.059c3.676 1.427 7.047 3.109 10.111 5.046l-8.425 18.81a58.906 58.906 0 0 0-8.733-5.352c-3.064-1.53-6.383-2.294-9.958-2.294h-1.226c-2.349.306-4.544 1.376-6.587 3.21-2.042 1.734-3.063 3.62-3.063 5.66v.917c.101.305.254.61.459.918a5.417 5.417 0 0 0 1.072 1.988 13.19 13.19 0 0 0 1.685 1.682c1.124.918 2.757 1.784 4.903 2.6 2.144.713 4.392 1.427 6.741 2.14 1.94.51 3.829 1.02 5.668 1.53 1.839.407 3.37.816 4.596 1.224 5.718 2.038 10.008 5.453 12.868 10.245 2.859 4.69 4.34 9.685 4.442 14.986v.765c0 .612-.05 1.224-.153 1.835v1.682c-.612 5.302-2.348 10.348-5.208 15.14-2.757 4.792-6.485 8.462-11.183 11.011a48.94 48.94 0 0 1-5.362 2.14c-1.826.507-3.665.966-5.515 1.377a35.377 35.377 0 0 1-4.596.611c-1.472.2-2.957.302-4.443.306h-1.686c-6.127-.203-12.152-1.529-18.076-3.977-5.924-2.548-11.183-5.912-15.778-10.092l12.254-19.575Z" fill="#fff"/></svg>