<svg xmlns="http://www.w3.org/2000/svg" width="185" height="96" fill="none" viewBox="0 0 185 96"><path fill="#81B3D3" d="M185 0H0l79.81 90.101c7.039 7.865 18.44 7.865 25.479 0L185 0Z"/><path fill="#23A9E1" d="M42.83.697 92.004 58.84l48.878-57.745L42.83.697Z"/><path fill="#fff" d="M120.954 17.224c-5.056 0-10.013.1-15.07.1 5.949-6.87 8.626-6.173 15.07-.1ZM80.107 22.6h26.471c-1.983-1.195-6.642-7.069-9.22-4.879-.198.2-7.436-8.86-12.195-4.48-4.163 3.784-6.047-.497-10.806 2.49-5.255 3.583 3.172 5.674 5.75 6.869Z"/><path fill="#491213" d="M92.302 0H41.838v22.4l50.166 61.23.298-.398 50.265-60.134V0H92.302ZM54.429 1.792h5.453v17.124l-5.453-6.471V1.792Zm-.793 9.757L48.68 5.675V1.792h4.957v9.757ZM72.771 8.86 67.12 1.792h5.65v7.069Zm-6.544 3.783L60.675 1.792h5.552v10.852Zm-5.65-9.259 5.452 10.653c-2.776 2.09-4.66 3.982-5.453 4.878V3.385Zm6.443-.498 5.552 6.87a41.788 41.788 0 0 0-3.073 1.891 53.637 53.637 0 0 0-2.479 1.793V2.886Zm6.544-.199 4.759 4.182c-1.686.696-3.272 1.493-4.76 2.29V2.687Zm5.552 3.883-5.354-4.779h5.949v4.58c-.298 0-.397.1-.595.199Zm18.936-4.779h4.957l-4.957 2.39v-2.39Zm-5.75 0h4.362l-4.362 2.09v-2.09Zm-.893 1.991-4.164-1.99h4.164v1.99Zm-5.452.498L80.9 1.792h5.057v2.489Zm-5.552-1.892 4.66 2.29c-1.587.399-3.173.797-4.66 1.295V2.389Zm6.345 0 3.37 1.593c-1.19.1-2.28.2-3.47.399V2.389h.1Zm10.31.1v1.892c-1.09-.2-2.18-.3-3.37-.399l3.37-1.493Zm6.445-.1v3.684c-1.487-.498-3.074-.995-4.759-1.394l4.759-2.29Zm.694-.597h5.849l-5.353 4.779c-.199-.1-.298-.1-.496-.2V1.793Zm13.483 0h5.552l-5.552 10.852V1.792Zm-6.543 0h5.651l-5.651 6.97v-6.97Zm-.793.896V9.16c-1.487-.796-3.074-1.593-4.759-2.29l4.759-4.18Zm6.543.2V13.34c-.694-.498-1.487-.996-2.28-1.593-.992-.697-2.181-1.394-3.371-2.09l5.651-6.77Zm6.345.497v15.133c-1.09-.996-2.875-2.688-5.453-4.58l5.453-10.553Zm.793 15.93V1.791h5.453v11.35l-5.453 6.172c.099.1 0 .1 0 0Zm6.246-17.523h4.957v4.68l-4.957 5.774V1.792Zm-82.288 0V4.68l-2.479-2.887h2.479Zm12.69 18.12.1.1s3.569-3.883 9.12-7.567c5.255-3.485 13.187-7.567 22.11-7.467 8.823 0 16.953 4.181 22.108 7.666 5.552 3.684 9.22 7.467 9.319 7.566l-3.866 4.48c-6.841.897-11.798 6.074-18.441 4.979-3.37-.598-3.47-2.49-4.461-4.48-.694-1.494-1.884-1.295-3.47-1.892-1.388-.598-2.28-1.693-5.155-1.095-2.479.597-2.776 4.48-5.949 4.28-1.685-.099-1.785-2.488-4.164-5.475-6.246-7.567-12.095-6.471-16.061.498l30.04 35.742-31.23-37.335Zm75.249-14.436V1.792h3.173l-3.173 3.684Z"/><path fill="#23A9E1" d="m87.94 70.588 4.064-6.472 3.966 6.472-3.966 6.47-4.065-6.47Z"/><path fill="#fff" d="M64.938 32.158c.496.597.893 1.294.793 2.09-.099.598-.892 1.593-.297 1.792.694-.896 1.487-1.891 2.181-2.787-.595-.2-5.353-5.775-5.353-6.472-1.091.598-2.083 1.195-3.173 1.693.198.697 1.289 0 1.884 0 .793.1 1.388.597 1.983 1.195-1.686 1.393-5.85 4.978-6.346 5.077-.198 0-1.09-.597-1.09-.1 0 .3.892.996.991 1.195.694.896 1.487 1.792 2.181 2.688.595-.298-.099-.697.199-1.194.297-.398 4.858-4.281 6.047-5.177ZM59.684 25.189c.396-.1.595.398.991-.1-.793-.996-1.586-1.892-2.38-2.887-.396-.399-.792-.896-.693 0 .099.597-6.048 5.675-6.444 5.774-.496.2-.794-.398-1.091.1.694.896 1.487 1.692 2.181 2.588.198.299.496.598.694.896.297.299.198-.697.198-.597-.099-.498.496-.896.893-1.195 1.487-1.294 5.254-4.58 5.65-4.58ZM50.96 24.293c-1.785.497-3.669-.2-4.165-1.992-.495-1.792.595-3.783 2.082-4.779 1.388-.995 3.57-.995 4.363.797.297.796.198 1.692-.1 2.489-.198.498-.594.995.1 1.294.892-1.095 1.685-2.19 2.577-3.285-1.09-.598-1.487-1.693-2.28-2.589-.892-1.095-2.082-2.09-3.47-2.29-2.875-.398-5.552 2.589-5.75 5.177-.1 1.494.396 2.788 1.19 3.983.793.995 1.883 1.593 2.379 2.787.297.1 2.677-.995 3.272-1.294-.1-.1-.1-.199-.199-.299-.694.2 0 0 0 0ZM89.922 60.532c-1.19-.796-3.965-4.68-4.56-5.277-.1-.1-.198-.298-.298-.398 0 0-.297.2-.198.2-.198.099.1.597-.1.895-.792 1.195-5.75 4.978-5.948 5.177-.594.399-1.19-.199-1.487.3.694.895 2.776 3.484 2.974 3.583.496.1.1-.796.199-.995.099-.399 2.578-2.39 3.47-3.186.297-.299.694.398.892.697.297.497.496.995.297 1.593-.099.398-.694.896-.297 1.194.595-.697 2.38-2.787 2.578-2.986.297-.3-.595 0-.496-.1-.397.2-.694.2-1.09 0-.1-.1-1.091-1.095-.992-1.195.397-.398.991-.995 1.487-1.095.892-.199 1.586 1.493 1.686 2.09.099.598.099 1.195-.1 1.793-.099.398-.495.697 0 .896.694-.996 1.388-1.892 2.082-2.887.199-.2 0-.299-.099-.299-.099-.1.199 0 0 0ZM79.81 56.35c2.18-1.891 2.478-5.077.793-7.267-1.884-2.49-5.354-3.087-7.733-1.095-2.181 1.891-2.479 4.977-.793 7.267 1.983 2.688 5.155 2.987 7.733 1.095 1.19-.895-.1.1 0 0Zm-.496-4.679c-.595 1.494-2.181 3.087-3.668 3.684-1.785.697-3.074-.796-2.38-2.589.694-1.493 2.181-3.086 3.669-3.683 1.883-.697 3.073.896 2.379 2.588-.396.896.1-.199 0 0ZM73.465 41.815c.495.1.892.498 1.288 0-.694-.896-1.487-1.792-2.18-2.589-.595.299 0 .498-.199.996-.198.398-2.578.796-3.172.896.198-.597.892-2.589 1.19-2.788.495-.398.892.398 1.288-.1l-2.677-3.285c-.297-.398-.595-.995-.991-.697 0 0 0 1.494-.1 1.693-.099.199-.892 3.584-1.883 4.48-.496.398-2.181 1.892-2.677 2.09-.496.2-.793-.597-1.19 0 .794.996 1.686 1.992 2.479 2.988.1.1.595.896.793.896.496.1.1-.896.1-1.096.197-.398 2.478-2.688 3.47-2.887 1.189-.199 2.974-.697 4.46-.597.298.1-.396 0 0 0Z"/><path fill="#DC6243" d="M67.219 22.8c-3.966-.2-2.38-3.983.396-4.78 2.578-.796 8.03 1.693 9.716 3.385-2.776.896-6.345.697-9.32.896-.197-3.186-.99-2.09-.792.498ZM76.637 35.244c-8.526-.1-2.776-13.241.1-12.445 3.37 1.095 2.974 12.544-.1 12.445ZM82.685 30.963c-.793 2.489-2.38 2.987-2.181-.1.198-3.484 2.478-2.688 4.858-3.982 1.983-1.095 3.073-5.177 6.543-2.788 1.586 1.096 3.371.2 3.867 1.792 0-.1-4.462 10.255-1.983 10.255-4.957 0-2.776-5.874-.892-9.856-1.785.896-4.76 6.67-2.38 7.566-1.289 1.693-5.155 3.883-7.138 2.29-1.487-1.095-.694-3.186-.694-5.177ZM86.75 40.52c-3.47.996-8.03-1.194-2.479-2.29 3.47-.696 7.138.698 2.479 2.29.099 0-.1 0 0 0ZM91.112 40.421c-.694-1.693.595-3.584 2.677-2.19 1.784 1.194-.892 3.086-2.677 2.19ZM88.138 45c-2.38-.696-10.41-.597-5.156-2.787 1.686-.597 10.113.2 5.156 2.788ZM98.548 48.286c-1.388-1.194-2.876-1.294-4.164 0-1.785-3.285-8.23-2.19-11.302-2.688 1.586 4.082 14.672 4.879 15.466 2.688ZM96.664 50.775c-3.173-.1-6.643-.597-9.518.1 1.884.498 6.345 1.792 2.181 2.887 1.488 2.19 3.966 1.991 5.552.1-.694-.3-.991-.697-1.586-1.096 1.586-.298 3.173-1.194 3.371-1.99ZM100.233 46.892c-5.254-3.086-3.966-5.376.397-7.566 2.28-1.095 7.237-5.177 9.319-3.883-3.272 3.883-6.543 7.666-9.716 11.45Z"/><path fill="#F49774" d="M96.466 39.625c-4.462-4.58 6.642-4.182 8.427-5.775 1.289.398 10.707-8.263 12.987-7.666-1.685 1.892-5.155 8.064-7.733 8.064-1.982 0-3.965-.298-5.452 1.096-2.182 2.09-5.85 3.086-8.23 4.28Z"/><path fill="#F4B1A4" d="M97.953 34.05c-2.479 1.294-4.759-3.884-.496-3.386 2.776.299 5.651-.199 8.229.2-1.983 2.29-4.66 3.583-7.733 3.185Z"/><path fill="#fff" d="M110.445 52.269c.198.597.297 1.294.198 1.99-.099.897-.991 2.888-2.181 2.29-1.19-.597-2.181-1.692-3.173-2.588.794-.896 1.488-1.692 2.876-1.294.396.1.694 0 .297-.299-.397-.199-3.073-1.991-3.272-1.792-.297.299.496.896.199 1.493-.199.399-.595.797-.893 1.195-.694-.597-1.883-1.294-1.09-2.29.495-.697 1.289-1.194 2.082-1.294.595-.1 1.784.398 1.983-.2-1.091-.497-2.182-.995-3.272-1.592.198.797-3.272 4.48-4.065 5.476-.099.1-.694.597-.694.796 0 .399.595.1.694.1.496-.2 6.742 5.077 6.94 5.476.099.298-.198.597 0 .697 0 0 .198.199.297.199.397-.498 4.462-5.974 5.354-6.173-.793-1.195-1.586-2.39-2.379-3.684-.595.299 0 .996.099 1.494ZM104.298 58.94c-2.082-1.295-5.552 1.293-6.048 1.492-.991.498-1.784-.497-1.289-1.493.496-.796 1.388-1.195 2.28-1.294.298 0 1.29.199 1.488 0 .099-.2.198-.2 0-.299-.892-.597-1.686-1.195-2.578-1.692-.198 1.095-1.388 1.692-2.082 2.389-.793.896-1.487 1.892-1.487 3.186 0 1.095.694 2.09 1.685 2.688 1.091.597 2.28.1 3.272-.498.595-.398 1.289-.896 1.884-1.194.991-.498 2.28-.1 1.983 1.294-.298 1.095-1.388 2.09-2.38 2.29-.595.199-1.289.1-1.883-.1-.397-.1-.992-.697-1.19-.1 1.19.797 2.28 1.693 3.47 2.49.099-.797.496-1.096 1.09-1.593a13.288 13.288 0 0 0 1.983-2.091c1.19-1.693 1.587-4.082-.198-5.476Z"/><path fill="#fff" d="M104.298 58.94c.991.596-.595-.499 0 0ZM140.683 19.514c-.694.697-8.328-2.29-8.923-2.788-.297-.1-.297-1.294-.694-.796l-1.189 1.493c-.397.498-.793.996-1.289 1.493-.298.299-.496.498 0 .697.793-.398 5.354 7.268 4.957 8.463-.694.398-6.841-5.078-7.039-5.377-.099-.1.297-.995-.198-.896-.199 0-.694.896-.893 1.096-.297.398-.595.697-.892 1.095.297.498.496 0 .991 0 .397.1 1.785 1.294 2.182 1.692-.694 0-2.677.1-2.876.1-.892.1-.396-.697-.991-.896-.793.896-1.487 1.792-2.28 2.787-.397.498-.893 1.096-1.289 1.593-.099.1 0 0 0 .1.297.299.099.2.595 0 .495-.2 6.543 4.878 6.741 5.177.397.398-.198.996.397 1.195.595-.697 1.19-1.494 1.785-2.19.099-.1.099-.1 0-.2-.397-.398-.496.2-.992.2-.496-.1-4.362-3.386-5.849-4.58 1.784-.1 7.237-.299 8.129-.299.298 0 1.091.896 1.091 1.195-.099.398-.496.597.099.796.496-.597.992-1.095 1.487-1.692l.199-.299c.099-.1.099-.1.198-.299l.198-.199c.397-.498 1.785-1.99 1.586-2.09-.495-.399-.694.497-1.288-.1-.298-.2-1.19-1.792-1.388-2.19-.298-.399.594-.896.991-1.096.793-.497 3.173-1.194 3.47.3 0 .298-.297.497-.099.696 0 0 .198.2.297.2.199-.2 2.38-2.788 3.272-3.983a2.729 2.729 0 0 1-.496-.398Zm-7.336 2.19c.099 0 .198-.1 0 0-.298.199-.694.498-.992.796-.495-.896-.991-1.792-1.586-2.688 1.19.498 2.379.996 3.47 1.494-.198.1-.496.199-.892.398ZM123.73 32.855c-2.38-1.992-5.552-1.394-7.535.796-1.884 2.29-1.685 5.675.595 7.566 2.28 1.892 5.651 1.394 7.535-.796 1.883-2.29 1.784-5.675-.595-7.566Zm-.298 6.57s0 .1 0 0c-1.288 1.295-3.37.1-4.461-.697-1.091-.796-3.073-2.588-1.884-4.081 1.091-1.295 3.074-.2 4.164.497 1.19.797 3.371 2.589 2.281 4.182l-.1.1Z"/><path fill="#fff" d="M123.73 32.855c1.19.995-.298-.2 0 0ZM123.432 39.526c0-.1 0-.1 0 0l.1-.1c-.1 0-.1.1-.1.1ZM117.186 41.914c.1.1.298.3 0 0-2.875-2.19-6.245-1.593-8.427 1.096a9395.1 9395.1 0 0 1-2.974 3.584c.397.498.793-.1 1.289.199.397.299 6.147 5.077 6.246 5.376.198.498-.297.498.099.896.198.1 4.461-5.177 4.858-6.173.892-1.792.297-3.683-1.091-4.978Zm-1.288 6.77c-.199.3 0 .1-.694.697-.298.3-6.345-4.679-6.147-4.878.793-.896 2.578-1.593 3.569-1.294 2.181.497 5.155 3.186 3.272 5.475Z"/></svg>