<?xml version="1.0" encoding="UTF-8"?><!DOCTYPE svg PUBLIC "-//W3C//DTD SVG 1.1//EN" "http://www.w3.org/Graphics/SVG/1.1/DTD/svg11.dtd"><svg xmlns="http://www.w3.org/2000/svg" xmlns:xlink="http://www.w3.org/1999/xlink"><symbol id="close-menu-icon"><g fill="none"><path d="M22.2 2.8 19.4 0l-8.3 8.3L2.8 0 0 2.8l8.3 8.3L0 19.4l2.8 2.8 8.3-8.3 8.3 8.3 2.8-2.8-8.3-8.3 8.3-8.3Z" fill="#fff"/></g></symbol><symbol id="email"><g fill="none"><path d="m8 8-1-.3L0 4v7c0 .5.5 1 1 1h14c.5 0 1-.5 1-1V4L9 7.7 8 8Zm7-8H1a1 1 0 0 0-1 1v.8L8 6l8-4.2V1c0-.5-.5-1-1-1Z" fill="#000"/></g></symbol><symbol id="hero-text-big"><g fill="none"><path fill-rule="evenodd" clip-rule="evenodd" d="m165.739 70-.201.2c-1.404 1.5-3.009 2.2-4.514 2.2l2.809-4.9c1.806-3.1.1-6.1-2.709-6.1-2.307 0-4.113.9-5.819 3.9l-1.505 2.6-1.204 2.1-.2.2c-2.207 2.5-4.314 4.5-5.619 4.5-.702 0-1.003-.5-.301-1.6l6.421-11.2h2.408l.903-1.4H153.7l2.809-4.9h-3.01l-2.809 4.9h-2.709l-.903 1.4h2.709l-6.019 10.4c-1.305 2.2-.402 4.3 2.006 4.3 1.706 0 3.712-1.3 5.518-3.1 0 3.8 5.317 4.6 8.528.5h.702c1.806 0 4.615-1.1 6.12-2.9 0-.5-.502-.9-.903-1.1Zm-6.421.2h-.1c-1.003 0-1.806.8-1.806 1.8 0 .4.1.7.301 1v.1c-1.405 2.4-4.816 2-3.11-1.2l2.307-3.9 1.405-2.4c2.107-3.6 5.016-2.2 3.21.9l-2.207 3.7Zm48.057-.2-.201.2c-2.207 2.5-4.916 4.5-7.023 4.5-1.806 0-2.909-1.2-1.605-3.6l.301-.5c1.906.8 5.618.4 7.825-3.5l.402-.7c1.605-2.8.1-4.8-2.408-4.8-2.408 0-4.314 1.3-5.618 3.5l-2.91 5-.201.2c-2.207 2.5-4.314 4.5-5.618 4.5-.702 0-1.003-.5-.301-1.6l4.314-7.6c1.304-2.3.101-3.9-1.605-3.9-1.304 0-2.709.7-4.214 2.3l4.816-8.3h-3.01L181.992 70l-.201.2c-2.207 2.5-4.314 4.5-5.618 4.5-.702 0-1.003-.5-.301-1.6l6.421-11.2h2.408l.903-1.4h-2.508l2.809-4.9h-3.01l-2.809 4.9h-2.709l-.903 1.4h2.709l-6.02 10.4c-1.304 2.2-.401 4.3 2.007 4.3 1.204 0 2.508-.6 3.812-1.6l-.802 1.3h3.009l4.515-7.9c4.615-5.8 6.622-5 5.418-2.8l-3.913 6.8c-1.304 2.2-.401 4.3 2.007 4.3 1.805 0 3.812-1.4 5.618-3.2.1 1.9 1.705 3.2 4.113 3.2 3.411 0 6.822-2.6 9.23-5.5.101-.6-.401-1-.802-1.2Zm-5.719-4.2c1.706-3 4.816-2.5 3.01.6l-.401.7c-1.405 2.4-3.412 2.4-4.515 2l1.906-3.3Zm114.974 4.4.201-.2c.501.1 1.003.6 1.103 1.1-2.207 2.6-5.217 5-8.327 5.4h-.1c-.301.1-.502.1-.803.1-2.809 0-3.31-2.4-3.31-2.4l1.906-1s.401 1.1 1.404 1.1c1.923 0 2.268-2.446 2.629-5 .185-1.31.374-2.649.782-3.7-.352.447-.746.966-1.174 1.53-.911 1.202-1.979 2.609-3.14 3.97-2.508 2.9-5.317 5.5-7.825 5.5-1.906 0-2.91-1.3-2.609-2.9-1.404 1.4-3.31 2.9-4.916 2.9-1.705 0-2.407-1.4-1.605-3.5-1.103.6-2.408.9-3.311.9h-.702c-3.21 4.1-8.628 3.3-8.528-.6-2.006 1.8-4.514 3.2-6.922 3.2-2.508 0-4.013-1.3-4.114-3.2-2.508 2.4-4.916 3.8-7.323 4.6l-2.308 3.9c-2.207 3.7-6.621 3.1-6.621.2 0-2.2 2.608-3.9 6.621-5.1l.702-1.2c-1.103.6-2.106 1-2.909 1-1.706 0-2.609-1-2.609-2.4-1.605 1.4-3.31 2.4-4.815 2.4-2.408 0-3.311-2.1-2.007-4.3l3.211-5.5c.301-.6.2-1.2-.201-1.7l-.401-.5c-2.408 3.2-3.612 4.7-5.017 6.4-1.504 1.8-4.314 2.9-6.119 2.9h-.703c-3.21 4.1-8.528 3.3-8.528-.5-2.508 2.3-4.815 3.8-7.223 4.5l-2.308 3.9c-2.207 3.7-6.621 3.1-6.621.2 0-2.2 2.608-3.9 6.621-5.1l.803-1.4c-1.104.6-2.107 1-2.909 1-2.408 0-3.311-2.1-2.007-4.3l4.214-7.3c1.204-2.2 3.511-3.5 5.116-3.5 1.806 0 3.111 1.7 3.111 2.9h1.805L222.123 76c2.407-1 4.514-2.8 7.022-5.7l.201-.2 1.204-2.1 1.505-2.6c1.705-3 3.511-3.9 5.819-3.9 2.809 0 4.515 3 2.709 6.1l-2.81 4.9c1.505 0 3.111-.7 4.515-2.2l.201-.2c2.006-2.3 3.812-4.8 5.116-6.7l-.3-.3c-1.004-1.4-.903-3.1.802-4.6l1.605 1.7c-.602.5-.602 1.2-.2 1.7l1.705 2c.903 1.2 1.405 2.3.402 4.1l-3.01 5.2c-.703 1.1-.402 1.6.301 1.6 1.304 0 3.411-2 5.618-4.5l.201-.2 2.909-5c1.204-2.2 3.512-3.5 5.117-3.5 1.806 0 3.11 1.7 3.11 2.9h1.806L260.949 76c2.408-1 4.515-2.8 7.023-5.7l.2-.2 2.91-5c1.304-2.2 3.21-3.5 5.618-3.5 2.508 0 4.013 2 2.408 4.8l-.401.7c-2.207 3.9-5.92 4.3-7.826 3.5l-.301.5c-1.304 2.4-.2 3.6 1.605 3.6 2.107 0 4.816-2 7.023-4.5l.201-.2 1.204-2.1 1.505-2.6c1.705-3 3.511-3.9 5.819-3.9 2.809 0 4.514 3 2.709 6.1l-2.81 4.9c1.505 0 3.111-.7 4.515-2.2l.201-.2 4.715-8.1h3.01l-5.819 10.2-.086.149c-.405.698-.97 1.672-.315 1.951.602.2 2.307-.9 4.615-3l5.317-9.3h3.01l-6.421 11.2c-.702 1.1-.401 1.6.301 1.6 1.304 0 3.411-2 5.618-4.5l.201-.2c2.597-2.96 5.109-6.517 6.425-8.38l.297-.42 2.207 1.2c-1.147 2.346-1.495 4.836-1.808 7.079-.208 1.487-.401 2.865-.801 4.021 1.204-.9 2.508-2 3.612-3.3Zm-39.83-3.8c1.806-3.1-1.304-3.6-3.009-.6l-1.906 3.3c1.103.4 3.11.4 4.514-2l.401-.7Zm-62.001 15.1c0 .9 1.003 1 1.605-.1l1.405-2.5c-2.308.9-3.01 1.8-3.01 2.6Zm2.709-8.4c-.703 1.1-.402 1.6.301 1.6 1.203 0 3.11-1.4 4.916-4.3l2.307-4c1.505-2.7-1.706-3.4-3.311-.6l-4.213 7.3Zm18.66-2.9h.101l2.207-3.7c1.806-3.1-1.104-4.5-3.211-.9l-1.404 2.4-2.308 3.9c-1.705 3.2 1.706 3.6 3.11 1.2V73c-.2-.3-.301-.6-.301-1 0-1 .803-1.8 1.806-1.8Zm17.357 11.3c0 .9 1.003 1 1.605-.1l1.405-2.5c-2.308.9-3.01 1.8-3.01 2.6Zm2.709-8.4c-.703 1.1-.402 1.6.301 1.6 1.203 0 3.11-1.4 4.916-4.3l2.307-4c1.505-2.7-1.706-3.4-3.311-.6l-4.213 7.3Zm29.797-2.9h.1l2.207-3.7c1.806-3.1-1.104-4.5-3.21-.9l-1.405 2.4-2.307 3.9c-1.706 3.2 1.705 3.6 3.11 1.2V73c-.201-.3-.301-.6-.301-1 0-1 .802-1.8 1.806-1.8Zm-155.506-3.4H101.53v2h28.995v-2Zm198.746 0h28.995v2h-28.995v-2Z" fill="#766458" class="to-the-gorgeous"/><path fill-rule="evenodd" clip-rule="evenodd" d="M163.532 0h7.725l-1.204 44.9h-14.547l-2.007-18.5-2.006 18.5h-14.648L135.742 0h7.625l.601 37.2h.803L149.687 0h7.625l4.916 37.2h.802l.502-37.2Zm31.904 37.2V45h-20.968V0h20.968v7.7h-13.343v10.8h10.634v7.7h-10.634v10.9h13.343v.1Zm21.47 7.8v-7.8h-10.735V0h-7.625v45h18.36Zm16.253-16.6 7.725-1.8v13.6c0 2.6-2.207 4.7-4.715 4.7h-11.538c-2.608 0-4.715-2.2-4.715-4.7V4.7c0-2.6 2.107-4.7 4.715-4.7h11.538c2.508 0 4.715 2.1 4.715 4.7v9.1l-7.725 1.8v-8h-5.518v29.5h5.518v-8.7Zm33.308-23.7c0-2.6-2.207-4.7-4.715-4.7h-11.538a4.702 4.702 0 0 0-4.715 4.7v35.4c0 2.5 2.107 4.7 4.715 4.7h11.538c2.508 0 4.715-2.1 4.715-4.7V4.7Zm-13.243 3h5.518v29.5h-5.518V7.7ZM291.549 0h7.624v44.9h-7.624V22.8l-3.11 11.4h-7.525l-3.01-11.4v22.1h-7.625V0h7.625l6.822 21.7L291.549 0Zm32.405 45V37.1h-13.343V26.2h10.634v-7.7h-10.634V7.7h13.343V0h-20.968v45h20.968Z" fill="#81B3D3" class="welcome"/><path fill-rule="evenodd" clip-rule="evenodd" d="M246.101 215.7c24.078 0 41.535-17.1 41.535-41.3 0-22.6-19.965-38.5-41.535-38.5-21.57 0-41.535 15.9-41.535 38.5 0 24.2 17.456 41.3 41.535 41.3ZM246 196.8c-11.637 0-21.168-9.4-21.168-22.3 0-10.3 9.631-19.8 21.168-19.8 11.638 0 21.169 9.5 21.169 19.8 0 12.9-9.531 22.3-21.169 22.3ZM31.502 152.6c4.816 0 9.33 2 12.943 5l7.725-15c-6.622-3.8-15.952-6.2-23.477-6.2-15.049 0-25.884 9.9-25.884 25.1 0 14.5 8.026 17.6 20.266 21.2.24.069.491.139.751.212l.003.001h.003c4.306 1.206 11.082 3.103 11.082 8.287 0 5.2-4.816 7.5-9.431 7.5-6.722 0-12.44-3.4-17.357-7.7L0 206.5c7.625 5.3 16.955 8.5 26.386 8.5 7.524 0 15.35-2 21.27-7 5.918-5 7.724-12.7 7.724-20.1 0-12.1-8.126-17.3-18.56-20.4l-5.017-1.5c-3.31-1-8.628-2.7-8.628-7.1 0-4.2 4.716-6.3 8.328-6.3ZM91.9 167.3v-12.5l23.276.1v-16.5h-42.74v74.8h42.74v-16.5H91.899v-12.9h21.971v-16.5H91.899Zm37.723-28.9h27.69c20.868 0 38.124 16.4 38.124 37.4s-17.357 37.4-38.124 37.4h-27.69v-74.8Zm19.563 58.3h4.415c11.638 0 21.57-6.4 21.57-20.9 0-13.4-8.829-20.9-21.37-20.9h-4.615v41.8Zm148.785-58.3h19.563l35.716 45.8h.201v-45.8h19.564v74.8H353.45l-35.716-45.9h-.201v45.9H297.97v-74.8Zm105.242 74.8 5.217-13h26.888l4.916 13H461l-28.292-74.8h-21.269l-28.894 74.8h20.667Zm18.661-51.7h.2l8.027 23.8h-16.253l8.026-23.8Z" fill="#fff" class="sedona"/><path fill-rule="evenodd" clip-rule="evenodd" d="M80.462 277.6c0 .3-.1.6-.2.9-.101.3-.302.6-.502.8-.201.2-.502.4-.803.6-.301.1-.702.2-1.104.2-.501 0-.903-.1-1.304-.3-.401-.2-.803-.4-1.104-.7-.238-.237-.35-.475-.486-.762l-.115-.238c-.1-.4-.201-.8-.201-1.3 0-.9.2-1.6.501-2.4.301-.7.703-1.4 1.305-1.9.2-.2.501-.5.802-.7.301-.2.602-.4.903-.5.19-.063.339-.165.473-.257.08-.055.155-.106.23-.143.076-.038.138-.062.191-.082a.518.518 0 0 0 .21-.118l1.404 2c-.06.03-.13.061-.207.094a3.685 3.685 0 0 0-.595.306c-.301.1-.602.3-.903.5-.301.2-.502.5-.702.8-.201.3-.301.6-.301 1 .702 0 1.204.2 1.705.6.602.3.803.9.803 1.6Zm7.925 0c0 .3-.1.6-.2.9-.1.3-.301.6-.502.8-.2.2-.501.4-.802.6-.301.1-.703.2-1.104.2-.502 0-.903-.1-1.304-.3-.402-.2-.803-.4-1.104-.7-.2-.3-.401-.6-.602-1-.1-.4-.2-.8-.2-1.3 0-.9.2-1.6.501-2.4.301-.7.703-1.4 1.305-1.9.2-.2.501-.5.802-.7.301-.2.602-.4.903-.5.189-.063.338-.165.473-.257.08-.055.155-.106.23-.143.076-.038.138-.062.19-.082a.518.518 0 0 0 .21-.118l1.405 2c-.06.03-.13.061-.207.094a3.681 3.681 0 0 0-.595.306c-.301.1-.602.3-.903.5-.301.2-.502.5-.703.8-.2.3-.3.6-.3 1 .702 0 1.203.2 1.705.6.502.3.803.9.803 1.6Zm275.698 18.5.301-.3c.29.116.647.365.974.593v.001c.239.166.462.322.631.406-3.21 3.6-6.822 7-9.932 7-1.906 0-3.11-1-3.311-2.5-1.906 1.5-3.812 2.5-5.317 2.5-2.308 0-3.512-1.4-3.311-3.3-2.207 1.9-4.414 3.3-6.421 3.3-3.11 0-4.214-2.6-2.608-5.4l4.916-8.6c1.705-2.8-.903-3.8-6.722 3.5l-5.819 10.1h-3.813l1.405-2.4c-1.906 1.7-3.913 2.8-5.719 2.8-1.906 0-3.11-1-3.31-2.5-1.907 1.5-3.813 2.5-5.318 2.5-2.207 0-3.311-1.3-3.311-3-2.006 1.8-4.113 3-6.019 3-3.11 0-4.214-2.6-2.609-5.4l4.013-7c.502-.8.301-1.6-.2-2.2l-.502-.6-.468.628-.001.001c-2.596 3.482-3.939 5.282-5.55 7.171.038.077.061.138.082.191a.507.507 0 0 0 .118.209c-4.214 4.9-8.126 7.6-12.039 8.8l-2.909 5c-2.709 4.7-8.328 3.9-8.328.3 0-2.9 3.211-4.9 8.328-6.5l1.003-1.7a7.668 7.668 0 0 1-4.114 1.2c-5.417 0-5.919-5.1-3.21-9.7l1.104-2c-3.111-1.6-4.816-4.5-4.816-7.5 0-2.6 1.204-5.2 3.913-7.1l1.204 2.2c-1.606 1.3-2.408 3-2.408 4.8 0 2.1 1.204 4.2 3.411 5.4l5.919-10.2c1.706-2.9 4.214-4.4 6.321-4.4 11.938 0 5.417 18.1-8.127 18.1-.802 0-1.505-.1-2.207-.2l-1.104 1.9c-2.307 3.9-1.805 6.5.803 6.5 3.01 0 5.317-2.6 7.324-6.1l.401-.7h3.712l-4.815 8.2c3.009-1.3 5.718-3.6 8.828-7.2l-.301-.3c2.228-2.576 4.219-5.389 5.832-7.667l.007-.011.582-.822-.301-.4c-1.304-1.7-1.204-3.9 1.004-5.8l2.006 2.2c-.702.7-.702 1.5-.201 2.2l2.107 2.6c1.204 1.5 1.806 2.8.502 5.1l-3.813 6.6c-.902 1.5-.401 2.1.402 2.1 1.705 0 4.414-2.5 7.123-5.7l.201-.2 3.712-6.3c1.605-2.8 4.514-4.4 6.521-4.4 2.508 0 4.113 2.2 4.013 3.8h1.906l-6.12 10.7c-.903 1.5-.401 2.1.402 2.1 1.705 0 4.414-2.5 7.123-5.7l.301-.3c.2 0 .301.1.401.2l6.12-10.5h3.812l-1.404 2.5c1.906-1.9 3.712-2.8 5.317-2.8 2.107 0 3.612 2.1 2.007 5l-5.518 9.6c-.903 1.5-.402 2.1.401 2.1 1.705 0 4.414-2.5 7.123-5.7l.301-.3s.1.1.201.1l3.712-6.4c1.605-2.8 4.515-4.4 6.521-4.4 1.605 0 2.809.9 3.511 2l5.619-9.6h3.812l-12.842 22.2c-.903 1.5-.401 2.1.402 2.1 1.705 0 4.414-2.5 7.123-5.7Zm-74.442-17.3c-1.004 0-2.308.9-3.411 2.8l-5.518 9.5h.802c9.933 0 14.146-12.3 8.127-12.3Zm-13.645 31.6c0 1 1.304 1.2 2.107-.2l1.706-3c-2.91 1.1-3.813 2.2-3.813 3.2Zm35.817-8.7c1.505 0 3.812-1.7 6.12-5.3l3.01-5.2c1.906-3.4-2.208-4.3-4.214-.8l-5.318 9.2c-.902 1.5-.401 2.1.402 2.1Zm36.719 0c1.605 0 3.913-1.7 6.22-5.5l2.91-5c1.906-3.4-2.207-4.3-4.214-.8l-5.317 9.2c-.903 1.5-.401 2.1.401 2.1Zm-239.579-26.2c7.524 0 7.022 9.6-.703 12.2 7.324 4.9 2.007 18.5-9.33 18.5-13.343 0-15.751-14.6-7.725-19.7l1.505 1.9c-3.712 2.4-4.415 7.8-1.806 11.4.505-.587.87-1.175 1.27-1.822l.235-.378 10.233-17.7c1.706-2.9 4.214-4.4 6.321-4.4ZM93.304 302c1.505.8 3.21 1.3 5.518 1.3 9.23 0 12.741-13.1 3.812-15l-1.003-.1-6.421 11.1c-.602 1-1.204 1.9-1.906 2.7Zm12.741-21.3-3.11 5.3c3.913-.1 6.02-.9 7.525-3.7 1.906-3.6-1.606-6.4-4.415-1.6Zm37.522 23.4c-2.508 0-3.712-1.9-3.11-4.1-2.709 2.3-5.819 4.1-9.029 4.3-3.211 0-5.217-2-5.117-4.6-2.709 2.6-6.12 4.6-9.431 4.6-4.514 0-6.621-3.8-4.213-7.8l4.013-6.8c1.605-2.8 4.013-4.4 7.123-4.4 3.11 0 5.016 2.6 3.01 6.1l-.502.9c-2.909 4.9-7.524 5.4-9.932 4.4l-.401.7c-1.706 3-.301 4.5 2.006 4.5 2.709 0 6.22-2.5 8.929-5.7l.301-.3c.05.05.1.075.151.1.05.025.1.05.15.1l3.812-6.5c1.606-2.8 4.014-4.4 7.124-4.4 3.11 0 5.016 2.6 3.009 6.1l-.501.9h-3.11l.501-.9c2.308-3.9-1.605-4.6-3.812-.8l-3.913 6.8c-1.705 3-.301 4.5 2.007 4.5 2.709 0 6.22-2.5 8.929-5.7l.301-.3c.2.1.401.2.602.4l3.812-6.6c1.605-2.8 4.515-4.4 6.521-4.4 2.508 0 4.114 2.2 4.013 3.8h2.208l-6.12 10.7c-.903 1.5-.402 2.1.401 2.1 1.706 0 4.414-2.5 7.123-5.7l.301-.3c.05.05.1.075.151.1.05.025.1.05.15.1l6.02-10.4h3.812l-7.424 12.9-.031.05c-.507.807-1.355 2.158-.471 2.55.703.3 2.91-1.2 5.819-3.8l6.722-11.8h3.813l-8.127 14.2c-.903 1.5-.401 2.1.401 2.1 1.706 0 4.415-2.5 7.124-5.7l.1-.2-.1-.1c2.82-3.308 5.641-7.231 7.441-9.734.376-.524.708-.985.986-1.366l2.809 1.5c-1.474 2.938-1.933 6.176-2.343 9.072-.26 1.835-.501 3.532-.968 4.928 1.505-1 3.211-2.5 4.615-4.1l.301-.3h.101l3.712-6.3c1.605-2.8 4.013-4.4 7.123-4.4 3.11 0 5.016 2.6 3.01 6.1l-.502.9c-2.909 4.9-7.524 5.4-9.932 4.4l-.402.7c-1.705 3-.301 4.5 2.007 4.5 2.709 0 6.22-2.5 8.929-5.7l.301-.3c.502.2 1.104.8 1.405 1.3-3.111 3.6-7.425 7-11.739 7-3.11 0-5.016-1.8-5.116-4.3-2.408 2.1-5.117 3.8-7.926 4.2h-.1c-.402.1-.703.1-1.104.1-3.511 0-4.214-3.1-4.214-3.1l2.408-1.2s.502 1.4 1.806 1.4c2.393 0 2.848-3.118 3.321-6.356.24-1.649.485-3.328.993-4.644-.426.547-.89 1.167-1.387 1.833h-.001c-1.141 1.528-2.462 3.296-3.929 4.967 0 .05.025.075.05.1.025.025.05.05.05.1-3.21 3.6-6.822 7-9.932 7-2.408 0-3.612-1.6-3.211-3.6-1.806 1.7-4.113 3.6-6.22 3.6-1.906 0-2.809-1.4-2.408-3.4-2.207 2-4.414 3.4-6.421 3.4-1.906 0-3.11-1-3.31-2.5-1.907 1.5-3.813 2.5-5.318 2.5Zm58.892-12.9c2.307-3.9-1.605-4.6-3.812-.8l-2.408 4.2c1.404.5 3.912.6 5.718-2.5l.502-.9Zm-52.872-.7-5.317 9.2c-.903 1.5-.402 2 .401 2.1 1.505 0 3.812-1.7 6.12-5.3l3.01-5.2c1.906-3.4-2.208-4.3-4.214-.8Zm-25.784.7c2.308-3.9-1.605-4.6-3.812-.8l-2.408 4.2c1.404.5 3.912.6 5.718-2.5l.502-.9Zm125.207 12.9c4.314 0 8.628-3.4 11.739-7-.301-.5-.903-1.1-1.405-1.3l-.301.3c-2.709 3.2-6.22 5.7-8.929 5.7-2.308 0-3.712-1.5-2.007-4.5l.402-.7c2.408 1 7.023.5 9.932-4.4l.502-.9c2.006-3.5.1-6.1-3.01-6.1s-5.518 1.6-7.123 4.4l-3.712 6.3s-.101 0-.101-.1l-.301.3c-2.708 3.2-5.417 5.7-7.123 5.7-.802 0-1.304-.6-.401-2.1l5.518-9.6c1.605-2.9.1-5-2.007-5-1.605 0-3.411.9-5.317 2.9l6.12-10.5h-3.913L226.838 296c-.05-.05-.125-.1-.2-.15h-.001c-.075-.05-.15-.1-.2-.15l-.301.3c-2.709 3.2-5.418 5.7-7.123 5.7-.803 0-1.304-.6-.402-2.1l8.127-14.2h3.11l1.104-1.8h-3.111l3.612-6.2h-3.812l-3.612 6.2h-3.411l-1.104 1.8h3.512l-7.625 13.2c-1.605 2.8-.502 5.4 2.608 5.4 1.907 0 3.913-1.2 6.02-3l-1.505 2.6h3.813l5.819-10c5.818-7.3 8.427-6.4 6.822-3.6l-4.916 8.6c-1.606 2.8-.502 5.4 2.608 5.4 2.308 0 4.916-1.8 7.324-4.2 0 2.5 1.906 4.3 5.016 4.3Zm3.11-13.7c2.208-3.8 6.12-3.1 3.813.8l-.502.9c-1.806 3.1-4.314 3-5.718 2.5l2.407-4.2Zm-14.848 41.4-.301.3c-2.709 3.2-5.417 5.7-7.123 5.7-.803 0-1.304-.6-.401-2.1l5.518-9.6c1.605-2.9.1-5-2.007-5-1.605 0-3.411.9-5.317 2.8l1.404-2.5h-3.812l-6.12 10.6c-.1-.05-.175-.1-.251-.15-.075-.05-.15-.1-.25-.15l-.301.3c-1.706 1.9-3.813 2.8-5.719 2.8l3.612-6.2c2.307-4 .2-7.7-3.411-7.7-2.91 0-5.217 1.2-7.425 5l-1.906 3.2-1.605 2.8a.514.514 0 0 0-.151-.1c-.05-.025-.1-.05-.15-.1l-.301.3c-3.11 3.6-5.819 5.9-8.829 7.2l10.434-17.8h-3.812l-6.722 11.7c-2.909 2.7-5.217 4.2-5.919 3.9-.885-.392-.037-1.743.47-2.55l.031-.05 7.424-12.9h-3.812L184.4 332c-.05-.05-.1-.075-.15-.1-.05-.025-.101-.05-.151-.1l-.301.3c-2.709 3.2-5.417 5.7-7.123 5.7-.803 0-1.304-.6-.401-2.1l5.518-9.6c1.605-2.9.1-5-2.007-5-1.605 0-3.411.9-5.317 2.8l1.404-2.5h-3.812l-6.12 10.5c-.1-.1-.201-.2-.401-.2l-.301.3c-2.709 3.2-5.418 5.7-7.123 5.7-.803 0-1.305-.6-.402-2.1l6.12-10.7h-2.207c.1-1.6-1.505-3.8-4.013-3.8-2.007 0-4.916 1.6-6.521 4.4l-3.913 6.8c-.301-.2-.602-.4-.803-.5l-.301.3c-2.708 3.2-6.119 5.7-9.832 5.7-2.608 0-4.213-2.6-1.906-6.5l1.104-1.9c.702.1 1.405.2 2.207.2 4.013 0 8.628-2.1 11.638-7.3 1.104-1.9 1.505-3.6 1.505-5.1 0-3.4-2.207-5.7-5.016-5.7-2.107 0-4.616 1.5-6.321 4.4l-5.919 10.2c-2.207-1.2-3.411-3.3-3.411-5.4 0-1.8.802-3.5 2.407-4.8l-1.203-2.2c-2.709 1.9-3.913 4.5-3.913 7.1 0 3 1.705 5.9 4.815 7.5l-1.103 2c-2.709 4.6-1.104 9.7 4.314 9.7 4.214 0 7.424-1.9 10.033-4.4-.803 2.4.401 4.4 3.11 4.4 1.505 0 3.411-1 5.317-2.5.201 1.5 1.405 2.5 3.311 2.5 1.806 0 3.812-1.1 5.718-2.8l-1.404 2.4h3.812l5.819-10.1c5.819-7.3 8.428-6.3 6.722-3.5l-4.916 8.6c-1.605 2.8-.502 5.4 2.608 5.4 2.007 0 4.314-1.4 6.522-3.4-.502 2.1.501 3.4 2.408 3.4 1.805 0 3.912-1.5 5.618-3.1l-2.107 3.6c-5.117 1.5-8.427 3.6-8.427 6.5 0 3.6 5.618 4.4 8.327-.3l2.909-5c3.211-1 6.321-3 9.631-6.2-.501 5.3 6.522 6.5 10.836 1.1h.802c1.405 0 3.311-.5 5.017-1.5l-2.509 4.4h3.813l5.819-10.1c5.819-7.3 8.427-6.3 6.722-3.5l-4.916 8.6c-1.606 2.8-.502 5.4 2.608 5.4 3.11 0 6.722-3.4 9.932-7-.1-.3-.802-.9-1.304-1.1Zm-94.708-14.2c1.104-1.9 2.408-2.8 3.411-2.8 1.405 0 2.107.9 2.107 2.3 0 3.5-4.314 9.9-10.233 9.9h-.803l5.518-9.4Zm13.444 14.8c-2.308 3.6-4.615 5.3-6.12 5.3-.803 0-1.304-.6-.401-2.1l5.317-9.2c2.006-3.5 6.12-2.6 4.214.8l-3.01 5.2Zm28.894 13.8c-.803 1.4-2.107 1.2-2.107.2s.903-2.1 3.812-3.2l-1.705 3Zm25.683-14.2h-.2c-1.204 0-2.207 1-2.207 2.3 0 .5.1.9.401 1.3v.1c-1.806 3.1-6.12 2.5-3.913-1.5l2.91-5 1.805-3.1c2.709-4.5 6.321-2.7 4.014 1.2l-2.81 4.7Zm113.47-.2c.501.1 1.203.7 1.404 1.3-2.809 3.3-6.722 6.4-10.534 7.1h-.1c-.402.1-.703.1-1.104.1-3.511 0-4.214-3.1-4.214-3.1l2.408-1.2s.502 1.4 1.806 1.4c2.393 0 2.848-3.117 3.321-6.356.24-1.648.485-3.328.993-4.644-.411.528-.857 1.123-1.337 1.765l-.001.001c-1.159 1.55-2.519 3.367-4.08 5.134-3.21 3.6-6.822 7-9.932 7-3.11 0-3.712-1.7-3.712-4.9v-3l-4.314 7.5h-3.812l2.106-3.7c-2.708 2.3-5.718 4-8.828 4-3.11 0-5.117-1.9-5.117-4.4-2.508 2.5-5.117 4.4-7.525 4.4-2.407 0-3.611-1.6-3.21-3.6-1.806 1.7-4.113 3.6-6.22 3.6-1.605 0-2.508-1-2.508-2.5-1.806 1.3-3.712 2.1-5.619 2.4h-.1c-.401.1-.702.1-1.104.1-3.119 0-4.021-2.446-4.184-2.992a90.043 90.043 0 0 1-2.236 2.692 20.156 20.156 0 0 0-.293-.227c-.426-.327-.868-.667-1.112-1.073 3.511-4 12.24-15.6 13.845-17.8l2.809 1.5c-1.474 2.939-1.933 6.176-2.343 9.072-.26 1.835-.501 3.532-.968 4.928.307-.262.653-.543 1.011-.835v-.001c.462-.376.946-.77 1.397-1.164l7.424-12.7h3.813l-7.424 12.9-.032.05c-.506.807-1.354 2.159-.47 2.55.702.3 2.909-1.2 5.819-3.8l6.722-11.8h3.812l-8.126 14.2c-.903 1.5-.402 2.1.401 2.1 1.706 0 4.414-2.5 7.123-5.7l.301-.3s.101.1.201.1l3.712-6.4c1.605-2.8 4.013-4.4 7.123-4.4 3.11 0 5.016 2.6 3.01 6.1l-.502.9h-3.11l.502-.9c2.307-3.9-1.605-4.6-3.813-.8l-3.912 6.8c-1.706 3-.301 4.5 2.006 4.5 2.709 0 6.22-2.5 8.929-5.7l.301-.3c.201.1.502.3.703.5l10.835-18.8h3.812l-5.417 9.4c3.912-3.6 9.631-1.6 6.119 4.5l-1.003 1.8c-1.806 3.1-4.615 4.8-7.324 4.5v1.6c0 1.8.803 2.6 1.606 2.6 1.705 0 4.414-2.5 7.123-5.7l.301-.3c2.821-3.307 5.641-7.231 7.441-9.734.377-.523.708-.985.986-1.366l2.809 1.5c-1.474 2.939-1.932 6.176-2.343 9.072-.26 1.835-.5 3.532-.967 4.928 1.504-1 3.21-2.5 4.615-4.1l.301-.3Zm-75.353 5.204 2.215-1.104s.501 1.4 1.805 1.4c2.394 0 2.849-3.117 3.321-6.356.241-1.648.486-3.328.993-4.644-.98 1.354-5.308 6.949-8.334 10.704Zm52.578-8.804-1.103 1.9c.903 2.5 4.214 1.1 5.317-.9l1.806-3.1c1.405-2.3-1.605-4-6.02 2.1Zm24.079 7.5c-1.204 0-2.207 1-2.207 2.2 0 1.2.903 2.2 2.207 2.2 1.204 0 2.207-.9 2.207-2.2 0-1.2-1.003-2.2-2.207-2.2Zm4.013-1.5h-3.813l11.939-20.7h3.813l-11.939 20.7Zm25.182 1.4c-.101.3-.201.6-.201.9 0 .7.301 1.3.803 1.6.501.4 1.003.6 1.705.6 0 .4-.1.7-.301 1-.2.3-.401.6-.702.8-.301.2-.602.4-.903.5-.21.139-.42.23-.596.306a4.953 4.953 0 0 0-.207.094l1.405 2c.062-.062.124-.085.21-.118a1.91 1.91 0 0 0 .191-.082c.075-.037.15-.088.23-.143.134-.092.284-.194.473-.257.301-.1.602-.3.902-.5.301-.2.602-.5.803-.7.602-.5 1.003-1.2 1.304-1.9.301-.8.502-1.5.502-2.4 0-.5-.1-.9-.201-1.3-.042-.083-.079-.163-.115-.238-.136-.287-.248-.525-.487-.762-.301-.3-.702-.5-1.103-.7-.402-.2-.803-.3-1.304-.3-.402 0-.803.1-1.104.2-.301.2-.602.4-.803.6-.2.2-.401.5-.501.8Zm-7.826 0c-.1.3-.2.6-.2.9 0 .7.2 1.3.802 1.6.502.4 1.003.6 1.706.6 0 .4-.101.7-.301 1-.201.3-.402.6-.703.8-.301.2-.602.4-.902.5-.301.2-.502.3-.803.4l1.404 2c.062-.062.124-.085.21-.118.053-.02.115-.044.192-.082.075-.037.149-.088.229-.143.135-.092.284-.194.473-.257.301-.1.602-.3.903-.5.301-.2.602-.5.803-.7.602-.5 1.003-1.2 1.304-1.9.301-.8.501-1.5.501-2.4 0-.5-.1-.9-.2-1.3-.201-.4-.401-.7-.602-1-.301-.3-.702-.5-1.104-.7-.401-.2-.802-.3-1.304-.3-.401 0-.803.1-1.104.2-.301.2-.602.4-.802.6-.201.2-.401.5-.502.8Z" fill="#fff" class="grand-canyon"/></g></symbol><symbol id="hero-text-small"><g fill="none"><path fill="#fff" d="M54.5 53c0 .5-.1.9-.1 1.3-.5 4-1.8 7.9-3.9 11.5-2.1 3.6-5 6.4-8.5 8.4-1.3.6-2.7 1.1-4.1 1.6-1.4.4-2.8.8-4.2 1.1-1.2.2-2.3.4-3.5.5-1.2.1-2.3.2-3.4.2h-1.2c-4.6-.2-9.2-1.2-13.7-3.1-4.4-2-8.4-4.5-11.9-7.7l9.3-14.9.2.2.2.2c2.1 2.3 4.5 4.5 7.1 6.4 2.6 1.9 5.7 3 9.1 3.2.1 0 .2 0 .3.1.1 0 .2.1.3.1.1 0 .2 0 .3.1.1 0 .2.1.3.1.3 0 .6 0 1-.1.3 0 .7-.1 1-.2 1.2-.2 2.4-.7 3.5-1.4s2-1.5 2.6-2.6c.1-.2.2-.3.2-.5.1-.2.2-.3.2-.5.2-.5.3-1 .3-1.5.1-.5.1-.9.1-1.3 0-2.1-.9-3.9-2.7-5.3-1.8-1.4-3.8-2.5-5.9-3.3-.9-.3-1.7-.6-2.4-.8-.8-.2-1.5-.4-2.2-.5-.1 0-.2 0-.2-.1-.1 0-.2-.1-.2-.1-3.8-.9-7.4-2.4-10.7-4.5-3.3-2.1-5.6-5-6.9-8.9l-.6-2.4c-.2-.9-.3-1.7-.4-2.7-.1-.3-.1-.6-.1-.9v-.9c0-.6 0-1.2.1-1.9 0-.6.1-1.2.3-1.9.2-1.5.6-3.1 1.2-4.6.5-1.5 1.2-2.9 2.1-4.2 2.5-4.1 5.7-7 9.6-8.8C20.7.9 24.8 0 29 0c1 0 2 .1 3.1.2 1 .1 2.1.3 3.2.4 2.8.5 5.6 1.2 8.3 2.3 2.7 1.1 5.3 2.4 7.6 3.8L44.8 21c-2.1-1.5-4.3-2.9-6.6-4.1-2.3-1.2-4.8-1.7-7.5-1.7h-1c-1.8.2-3.4 1-5 2.4-1.5 1.4-2.3 2.8-2.3 4.4 0 .2 0 .5.1.7 0 .2.1.5.3.7.2.5.4 1 .8 1.5s.8.9 1.3 1.3c.9.7 2.1 1.3 3.7 1.9 1.6.6 3.3 1.1 5.1 1.7 1.5.4 2.9.8 4.3 1.1 1.4.3 2.6.7 3.5 1 4.3 1.5 7.6 4.1 9.8 7.7 2.2 3.6 3.3 7.4 3.4 11.4v.5c-.1.5-.1 1-.2 1.5Zm60 6.2v16.6H69.1v-74h45.4V18H89v12.9h24v15.8H89v12.5h25.5Zm76.6-2.9c-2.4 5.1-5.8 9.3-10.3 12.5-3.6 2.5-7.6 4.2-11.8 5.1-4.3.9-8.6 1.5-12.9 1.7-1.2.1-2.5.1-3.7.1h-23.8v-74h25.1c1.2 0 2.4 0 3.5.1 4.2.2 8.3.8 12.4 1.7 4.1.9 7.8 2.6 11.2 5.1 4.3 3 7.7 7 10.1 12 2.4 5 3.8 10.1 4.1 15.3.1.5.1.9.1 1.4v3c-.3 5.6-1.6 10.9-4 16ZM174.7 38c0-.3 0-.6-.1-.9-.2-2.9-.9-5.8-2.1-8.5-1.2-2.7-2.9-4.9-5.1-6.6-1.6-1.3-3.4-2.2-5.4-2.7-2-.5-4-.7-6.1-.8h-7.5v40.8c.2 0 .5 0 .8.1.3 0 .5.1.8.1.3 0 .6 0 .8.1.2 0 .5.1.7.1.8 0 1.6 0 2.4-.1.9 0 1.7-.1 2.4-.2 2-.2 4-.5 5.9-1 1.9-.5 3.7-1.4 5.2-2.4 2.5-1.8 4.3-4.2 5.5-7.3 1.2-3.1 1.8-6.3 1.8-9.6V38Zm109.6 3.9c0 .8-.1 1.6-.3 2.4-.2 1.6-.4 3.2-.9 4.8-.4 1.6-1 3.2-1.6 4.7-3.3 7.5-8.3 13.3-15.2 17.5-6.9 4.1-14.1 6.2-21.7 6.2-.5 0-1.1 0-1.6-.1-.5 0-1-.1-1.6-.1-2.6-.2-5.2-.7-7.8-1.4-2.6-.7-5.1-1.7-7.5-2.9-6.5-3.4-11.6-8.3-15.3-14.6-3.7-6.3-5.6-12.9-5.6-19.7 0-1 0-2 .1-3s.2-2.1.5-3.1c.4-2 .9-4 1.6-6.1.7-2 1.5-4 2.6-5.9 3.6-6.6 8.5-11.6 14.9-15.1 6.3-3.5 13-5.2 19.9-5.2.9 0 1.9 0 2.8.1 1 .1 1.9.2 2.8.2 2.9.4 5.7 1.1 8.5 2.1s5.5 2.3 8.1 3.9c5.5 3.6 9.8 8.3 12.8 14.2 3 5.9 4.5 12.1 4.5 18.5v2.6Zm-20.2-4.2c0-.5-.1-.9-.1-1.4-.4-3.3-1.4-6.5-3-9.6-1.6-3.1-3.9-5.5-6.7-7.2-.8-.4-1.5-.7-2.3-1-.8-.3-1.5-.6-2.3-.8-.8-.2-1.5-.3-2.3-.4-.8-.1-1.5-.2-2.3-.2-3.9 0-7.6 1.2-10.9 3.7-3.3 2.5-5.7 5.8-7 9.9-.1.2-.1.3-.2.5 0 .2-.1.3-.1.5l-.6 2.1c-.2.7-.3 1.5-.5 2.3-.1.5-.1 1.1-.2 1.6 0 .5-.1 1-.1 1.6v.9c0 .3 0 .6.1.9.2 4.1 1.5 8 3.8 11.7 2.3 3.7 5.4 6.1 9.5 7.3.5.2.9.3 1.4.4l1.5.3c.5.1.9.1 1.4.2.5 0 .9.1 1.4.1 4.1 0 7.8-1.2 11.1-3.7 3.3-2.4 5.7-5.7 7.1-9.8l.6-2.4c.2-.9.3-1.7.4-2.6.1-.5.1-1.1.2-1.6 0-.5.1-1 .1-1.5v-1.8Zm87.5 38.1-28.1-38.2c-.8-.9-1.5-2-2.2-3.3-.7-1.3-1.4-2.6-2-4-.5-1-.9-2-1.3-3s-.8-1.9-1.2-2.7c.4 2.4.7 4.8.9 7.3.2 2.5.3 5 .3 7.4v36.5h-19.5v-74H318l27.9 38c.7 1.1 1.4 2.2 2 3.4.7 1.2 1.3 2.4 1.9 3.7.5 1 .9 2 1.4 3 .5 1 .9 2 1.4 2.9-.1-.9-.2-1.7-.3-2.4L352 48c-.2-1.5-.3-3.1-.3-4.8-.1-1.6-.1-3.3-.1-5V1.9H371v74h-19.4v-.1Zm85.1 0L433 62.5h-28.6l-3.8 13.4h-20l25.4-74h25.2l25.7 74h-20.2v-.1Zm-15.5-52.1c-.4-1.2-.8-2.4-1.1-3.7-.3-1.3-.6-2.5-.9-3.8-.2-.5-.3-.9-.3-1.3-.1-.4-.2-.8-.2-1.2l-.3 1.2c-.1.4-.2.9-.3 1.3-.1.2-.1.3-.1.4 0 .1 0 .3-.1.4-.2 1.2-.5 2.3-.8 3.4l-.9 3.3-7.5 24.5h20.1l-7.6-24.5Z"/></g></symbol><symbol id="htmlacademy"><g fill="none"><path d="M13.6 0h-.1L0 1.4v24.7l13.5 8 13.4-8V1.4L13.6 0ZM25 12.1 13.5 5.3v-.1h-.1l-.1-.1v.1L1.9 12.1v-9l11.5-1.2L25 3.1v9ZM13.4 6.8l11.5 6.7-4.5 2.6-7.1-4.2v1.4l5.9 3.5-.9.5-5-3v1.4l3.8 2.3-.8.5-3-1.8v1.4l1.9 1.1-1.8 1.1L2 13.6l11.4-6.8ZM1.9 15.1l11.4 6.8v1l-7.9-4.7v1.4l8 4.8v1.1l-8-4.7v1.4l8 4.8 8.1-4.9v-5.2l3.4-2v10l-11.5 6.9L1.9 25v-9.9Z" fill="currentColor"/></g></symbol><symbol id="like"><g fill="none"><path d="m12.4 3.6-.6 2.9-.6 2.5h8.7v2.1L17 18H8V8l4.4-4.4ZM2 10v8-8ZM13.2 0 6.6 6.6c-.4.3-.6.8-.6 1.4v10c0 1.1.9 2 2 2h9a2 2 0 0 0 1.8-1.2l3-7.1.1-.7V9h.1a2 2 0 0 0-2-2h-6.3l1-4.6v-.3c0-.4-.2-.8-.4-1.1l-1.1-1ZM4 8H0v12h4V8Z" fill="currentColor"/></g></symbol><symbol id="logo"><g fill="none"><path fill="#81B3D3" d="M185 0H0l79.81 90.101c7.039 7.865 18.44 7.865 25.479 0L185 0Z"/><path fill="#23A9E1" d="M42.83.697 92.004 58.84l48.878-57.745L42.83.697Z"/><path fill="#fff" d="M120.954 17.224c-5.056 0-10.013.1-15.07.1 5.949-6.87 8.626-6.173 15.07-.1ZM80.107 22.6h26.471c-1.983-1.195-6.642-7.069-9.22-4.879-.198.2-7.436-8.86-12.195-4.48-4.163 3.784-6.047-.497-10.806 2.49-5.255 3.583 3.172 5.674 5.75 6.869Z"/><path fill="#491213" d="M92.302 0H41.838v22.4l50.166 61.23.298-.398 50.265-60.134V0H92.302ZM54.429 1.792h5.453v17.124l-5.453-6.471V1.792Zm-.793 9.757L48.68 5.675V1.792h4.957v9.757ZM72.771 8.86 67.12 1.792h5.65v7.069Zm-6.544 3.783L60.675 1.792h5.552v10.852Zm-5.65-9.259 5.452 10.653c-2.776 2.09-4.66 3.982-5.453 4.878V3.385Zm6.443-.498 5.552 6.87a41.788 41.788 0 0 0-3.073 1.891 53.637 53.637 0 0 0-2.479 1.793V2.886Zm6.544-.199 4.759 4.182c-1.686.696-3.272 1.493-4.76 2.29V2.687Zm5.552 3.883-5.354-4.779h5.949v4.58c-.298 0-.397.1-.595.199Zm18.936-4.779h4.957l-4.957 2.39v-2.39Zm-5.75 0h4.362l-4.362 2.09v-2.09Zm-.893 1.991-4.164-1.99h4.164v1.99Zm-5.452.498L80.9 1.792h5.057v2.489Zm-5.552-1.892 4.66 2.29c-1.587.399-3.173.797-4.66 1.295V2.389Zm6.345 0 3.37 1.593c-1.19.1-2.28.2-3.47.399V2.389h.1Zm10.31.1V4.38c-1.09-.2-2.18-.3-3.37-.399l3.37-1.493Zm6.445-.1v3.684c-1.487-.498-3.074-.995-4.759-1.394l4.759-2.29Zm.694-.597h5.849l-5.353 4.779c-.199-.1-.298-.1-.496-.2V1.793Zm13.483 0h5.552l-5.552 10.852V1.792Zm-6.543 0h5.651l-5.651 6.97v-6.97Zm-.793.896V9.16c-1.487-.796-3.074-1.593-4.759-2.29l4.759-4.18Zm6.543.2V13.34c-.694-.498-1.487-.996-2.28-1.593-.992-.697-2.181-1.394-3.371-2.09l5.651-6.77Zm6.345.497v15.133c-1.09-.996-2.875-2.688-5.453-4.58l5.453-10.553Zm.793 15.93V1.791h5.453v11.35l-5.453 6.172c.099.1 0 .1 0 0Zm6.246-17.523h4.957v4.68l-4.957 5.774V1.792Zm-82.288 0V4.68l-2.479-2.887h2.479Zm12.69 18.12.1.1s3.569-3.883 9.12-7.567c5.255-3.485 13.187-7.567 22.11-7.467 8.823 0 16.953 4.181 22.108 7.666 5.552 3.684 9.22 7.467 9.319 7.566l-3.866 4.48c-6.841.897-11.798 6.074-18.441 4.979-3.37-.598-3.47-2.49-4.461-4.48-.694-1.494-1.884-1.295-3.47-1.892-1.388-.598-2.28-1.693-5.155-1.095-2.479.597-2.776 4.48-5.949 4.28-1.685-.099-1.785-2.488-4.164-5.475-6.246-7.567-12.095-6.471-16.061.498l30.04 35.742-31.23-37.335Zm75.249-14.436V1.792h3.173l-3.173 3.684Z"/><path fill="#23A9E1" d="m87.94 70.588 4.064-6.472 3.966 6.472-3.966 6.47-4.065-6.47Z"/><path fill="#fff" d="M64.938 32.158c.496.597.893 1.294.793 2.09-.099.598-.892 1.593-.297 1.792.694-.896 1.487-1.891 2.181-2.787-.595-.2-5.353-5.775-5.353-6.472-1.091.598-2.083 1.195-3.173 1.693.198.697 1.289 0 1.884 0 .793.1 1.388.597 1.983 1.195-1.686 1.393-5.85 4.978-6.346 5.077-.198 0-1.09-.597-1.09-.1 0 .3.892.996.991 1.195.694.896 1.487 1.792 2.181 2.688.595-.298-.099-.697.199-1.194.297-.398 4.858-4.281 6.047-5.177Zm-5.254-6.969c.396-.1.595.398.991-.1-.793-.996-1.586-1.892-2.38-2.887-.396-.399-.792-.896-.693 0 .099.597-6.048 5.675-6.444 5.774-.496.2-.794-.398-1.091.1.694.896 1.487 1.692 2.181 2.588.198.299.496.598.694.896.297.299.198-.697.198-.597-.099-.498.496-.896.893-1.195 1.487-1.294 5.254-4.58 5.65-4.58Zm-8.724-.896c-1.785.497-3.669-.2-4.165-1.992-.495-1.792.595-3.783 2.082-4.779 1.388-.995 3.57-.995 4.363.797.297.796.198 1.692-.1 2.489-.198.498-.594.995.1 1.294.892-1.095 1.685-2.19 2.577-3.285-1.09-.598-1.487-1.693-2.28-2.589-.892-1.095-2.082-2.09-3.47-2.29-2.875-.398-5.552 2.589-5.75 5.177-.1 1.494.396 2.788 1.19 3.983.793.995 1.883 1.593 2.379 2.787.297.1 2.677-.995 3.272-1.294-.1-.1-.1-.199-.199-.299-.694.2 0 0 0 0Zm38.962 36.239c-1.19-.796-3.965-4.68-4.56-5.277-.1-.1-.198-.298-.298-.398 0 0-.297.2-.198.2-.198.099.1.597-.1.895-.792 1.195-5.75 4.978-5.948 5.177-.594.399-1.19-.199-1.487.3.694.895 2.776 3.484 2.974 3.583.496.1.1-.796.199-.995.099-.399 2.578-2.39 3.47-3.186.297-.299.694.398.892.697.297.497.496.995.297 1.593-.099.398-.694.896-.297 1.194.595-.697 2.38-2.787 2.578-2.986.297-.3-.595 0-.496-.1-.397.2-.694.2-1.09 0-.1-.1-1.091-1.095-.992-1.195.397-.398.991-.995 1.487-1.095.892-.199 1.586 1.493 1.686 2.09.099.598.099 1.195-.1 1.793-.099.398-.495.697 0 .896.694-.996 1.388-1.892 2.082-2.887.199-.2 0-.299-.099-.299-.099-.1.199 0 0 0ZM79.81 56.35c2.18-1.891 2.478-5.077.793-7.267-1.884-2.49-5.354-3.087-7.733-1.095-2.181 1.891-2.479 4.977-.793 7.267 1.983 2.688 5.155 2.987 7.733 1.095 1.19-.895-.1.1 0 0Zm-.496-4.679c-.595 1.494-2.181 3.087-3.668 3.684-1.785.697-3.074-.796-2.38-2.589.694-1.493 2.181-3.086 3.669-3.683 1.883-.697 3.073.896 2.379 2.588-.396.896.1-.199 0 0Zm-5.849-9.856c.495.1.892.498 1.288 0-.694-.896-1.487-1.792-2.18-2.589-.595.299 0 .498-.199.996-.198.398-2.578.796-3.172.896.198-.597.892-2.589 1.19-2.788.495-.398.892.398 1.288-.1l-2.677-3.285c-.297-.398-.595-.995-.991-.697 0 0 0 1.494-.1 1.693-.099.199-.892 3.584-1.883 4.48-.496.398-2.181 1.892-2.677 2.09-.496.2-.793-.597-1.19 0 .794.996 1.686 1.992 2.479 2.988.1.1.595.896.793.896.496.1.1-.896.1-1.096.197-.398 2.478-2.688 3.47-2.887 1.189-.199 2.974-.697 4.46-.597.298.1-.396 0 0 0Z"/><path fill="#DC6243" d="M67.219 22.8c-3.966-.2-2.38-3.983.396-4.78 2.578-.796 8.03 1.693 9.716 3.385-2.776.896-6.345.697-9.32.896-.197-3.186-.99-2.09-.792.498Zm9.418 12.444c-8.526-.1-2.776-13.241.1-12.445 3.37 1.095 2.974 12.544-.1 12.445Zm6.048-4.281c-.793 2.489-2.38 2.987-2.181-.1.198-3.484 2.478-2.688 4.858-3.982 1.983-1.095 3.073-5.177 6.543-2.788 1.586 1.096 3.371.2 3.867 1.792 0-.1-4.462 10.255-1.983 10.255-4.957 0-2.776-5.874-.892-9.856-1.785.896-4.76 6.67-2.38 7.566-1.289 1.693-5.155 3.883-7.138 2.29-1.487-1.095-.694-3.186-.694-5.177Zm4.065 9.557c-3.47.996-8.03-1.194-2.479-2.29 3.47-.696 7.138.698 2.479 2.29.099 0-.1 0 0 0Zm4.362-.099c-.694-1.693.595-3.584 2.677-2.19 1.784 1.194-.892 3.086-2.677 2.19ZM88.138 45c-2.38-.696-10.41-.597-5.156-2.787 1.686-.597 10.113.2 5.156 2.788Zm10.41 3.286c-1.388-1.194-2.876-1.294-4.164 0-1.785-3.285-8.23-2.19-11.302-2.688 1.586 4.082 14.672 4.879 15.466 2.688Zm-1.884 2.489c-3.173-.1-6.643-.597-9.518.1 1.884.498 6.345 1.792 2.181 2.887 1.488 2.19 3.966 1.991 5.552.1-.694-.3-.991-.697-1.586-1.096 1.586-.298 3.173-1.194 3.371-1.99Zm3.569-3.883c-5.254-3.086-3.966-5.376.397-7.566 2.28-1.095 7.237-5.177 9.319-3.883-3.272 3.883-6.543 7.666-9.716 11.45Z"/><path fill="#F49774" d="M96.466 39.625c-4.462-4.58 6.642-4.182 8.427-5.775 1.289.398 10.707-8.263 12.987-7.666-1.685 1.892-5.155 8.064-7.733 8.064-1.982 0-3.965-.298-5.452 1.096-2.182 2.09-5.85 3.086-8.23 4.28Z"/><path fill="#F4B1A4" d="M97.953 34.05c-2.479 1.294-4.759-3.884-.496-3.386 2.776.299 5.651-.199 8.229.2-1.983 2.29-4.66 3.583-7.733 3.185Z"/><path fill="#fff" d="M110.445 52.269c.198.597.297 1.294.198 1.99-.099.897-.991 2.888-2.181 2.29-1.19-.597-2.181-1.692-3.173-2.588.794-.896 1.488-1.692 2.876-1.294.396.1.694 0 .297-.299-.397-.199-3.073-1.991-3.272-1.792-.297.299.496.896.199 1.493-.199.399-.595.797-.893 1.195-.694-.597-1.883-1.294-1.09-2.29.495-.697 1.289-1.194 2.082-1.294.595-.1 1.784.398 1.983-.2-1.091-.497-2.182-.995-3.272-1.592.198.797-3.272 4.48-4.065 5.476-.099.1-.694.597-.694.796 0 .399.595.1.694.1.496-.2 6.742 5.077 6.94 5.476.099.298-.198.597 0 .697 0 0 .198.199.297.199.397-.498 4.462-5.974 5.354-6.173a119.349 119.349 0 0 1-2.379-3.684c-.595.299 0 .996.099 1.494Zm-6.147 6.671c-2.082-1.295-5.552 1.293-6.048 1.492-.991.498-1.784-.497-1.289-1.493.496-.796 1.388-1.195 2.28-1.294.298 0 1.29.199 1.488 0 .099-.2.198-.2 0-.299-.892-.597-1.686-1.195-2.578-1.692-.198 1.095-1.388 1.692-2.082 2.389-.793.896-1.487 1.892-1.487 3.186 0 1.095.694 2.09 1.685 2.688 1.091.597 2.28.1 3.272-.498.595-.398 1.289-.896 1.884-1.194.991-.498 2.28-.1 1.983 1.294-.298 1.095-1.388 2.09-2.38 2.29-.595.199-1.289.1-1.883-.1-.397-.1-.992-.697-1.19-.1 1.19.797 2.28 1.693 3.47 2.49.099-.797.496-1.096 1.09-1.593a13.288 13.288 0 0 0 1.983-2.091c1.19-1.693 1.587-4.082-.198-5.476Z"/><path fill="#fff" d="M104.298 58.94c.991.596-.595-.499 0 0Zm36.385-39.426c-.694.697-8.328-2.29-8.923-2.788-.297-.1-.297-1.294-.694-.796l-1.189 1.493c-.397.498-.793.996-1.289 1.493-.298.299-.496.498 0 .697.793-.398 5.354 7.268 4.957 8.463-.694.398-6.841-5.078-7.039-5.377-.099-.1.297-.995-.198-.896-.199 0-.694.896-.893 1.096-.297.398-.595.697-.892 1.095.297.498.496 0 .991 0 .397.1 1.785 1.294 2.182 1.692-.694 0-2.677.1-2.876.1-.892.1-.396-.697-.991-.896-.793.896-1.487 1.792-2.28 2.787-.397.498-.893 1.096-1.289 1.593-.099.1 0 0 0 .1.297.299.099.2.595 0 .495-.2 6.543 4.878 6.741 5.177.397.398-.198.996.397 1.195.595-.697 1.19-1.494 1.785-2.19.099-.1.099-.1 0-.2-.397-.398-.496.2-.992.2-.496-.1-4.362-3.386-5.849-4.58 1.784-.1 7.237-.299 8.129-.299.298 0 1.091.896 1.091 1.195-.099.398-.496.597.099.796.496-.597.992-1.095 1.487-1.692l.199-.299c.099-.1.099-.1.198-.299l.198-.199c.397-.498 1.785-1.99 1.586-2.09-.495-.399-.694.497-1.288-.1-.298-.2-1.19-1.792-1.388-2.19-.298-.399.594-.896.991-1.096.793-.497 3.173-1.194 3.47.3 0 .298-.297.497-.099.696 0 0 .198.2.297.2.199-.2 2.38-2.788 3.272-3.983a2.729 2.729 0 0 1-.496-.398Zm-7.336 2.19c.099 0 .198-.1 0 0a6.989 6.989 0 0 0-.992.796c-.495-.896-.991-1.792-1.586-2.688 1.19.498 2.379.996 3.47 1.494-.198.1-.496.199-.892.398Zm-9.617 11.151c-2.38-1.992-5.552-1.394-7.535.796-1.884 2.29-1.685 5.675.595 7.566 2.28 1.892 5.651 1.394 7.535-.796 1.883-2.29 1.784-5.675-.595-7.566Zm-.298 6.57s0 .1 0 0c-1.288 1.295-3.37.1-4.461-.697-1.091-.796-3.073-2.588-1.884-4.081 1.091-1.295 3.074-.2 4.164.497 1.19.797 3.371 2.589 2.281 4.182l-.1.1Z"/><path fill="#fff" d="M123.73 32.855c1.19.995-.298-.2 0 0Zm-.298 6.671c0-.1 0-.1 0 0l.1-.1c-.1 0-.1.1-.1.1Zm-6.246 2.388c.1.1.298.3 0 0-2.875-2.19-6.245-1.593-8.427 1.096a9395.1 9395.1 0 0 1-2.974 3.584c.397.498.793-.1 1.289.199.397.299 6.147 5.077 6.246 5.376.198.498-.297.498.099.896.198.1 4.461-5.177 4.858-6.173.892-1.792.297-3.683-1.091-4.978Zm-1.288 6.77c-.199.3 0 .1-.694.697-.298.3-6.345-4.679-6.147-4.878.793-.896 2.578-1.593 3.569-1.294 2.181.497 5.155 3.186 3.272 5.475Z"/></g></symbol><symbol id="menu-icon"><g fill="none"><path d="M22.9 0H0v4h22.9V0Zm0 9H0v4h22.9V9Zm0 9H0v4h22.9v-4Z" fill="#81B3D2"/></g></symbol><symbol id="phone"><g fill="none"><path d="M3.6 7.8c1.4 2.8 3.8 5.1 6.6 6.6l2.2-2.2c.3-.3.7-.4 1-.2 1.1.4 2.3.6 3.6.6.6 0 1 .4 1 1V17c0 .6-.4 1-1 1A17 17 0 0 1 0 1c0-.6.4-1 1-1h3.5c.6 0 1 .4 1 1 0 1.2.2 2.4.6 3.6.1.3 0 .7-.2 1L3.6 7.8Z" fill="#010101"/></g></symbol><symbol id="play-icon"><g fill="none"><path d="M48 27 0 54V0l48 27Z" fill="#fff" fill-opacity=".7"/></g></symbol><symbol id="telegram"><g fill="none"><path d="m21.44 1.62-3.17 14.95c-.24 1.05-.86 1.31-1.75.82l-4.83-3.56-2.33 2.24c-.25.26-.47.47-.97.47l.35-4.91 8.95-8.09c.39-.35-.09-.54-.6-.2L6.01 10.32l-4.75-1.5C.22 8.5.21 7.8 1.48 7.3L20.1.11c.87-.32 1.62.2 1.34 1.51Z" fill="#fff"/></g></symbol><symbol id="vkontakte"><g fill="none"><path fill-rule="evenodd" clip-rule="evenodd" d="M23.45.95c.17-.55 0-.95-.8-.95h-2.62c-.67 0-.98.35-1.14.73 0 0-1.34 3.2-3.23 5.27-.61.6-.89.8-1.22.8-.17 0-.42-.2-.42-.74V.95c0-.66-.18-.95-.74-.95H9.15c-.42 0-.67.3-.67.6 0 .61.95.76 1.05 2.5v3.8c0 .84-.16.99-.5.99-.88 0-3.05-3.21-4.33-6.89-.25-.71-.5-1-1.17-1H.9C.15 0 0 .35 0 .73c0 .68.89 4.07 4.14 8.55C6.32 12.34 9.38 14 12.15 14c1.67 0 1.88-.37 1.88-1v-2.32c0-.73.16-.88.69-.88.38 0 1.05.2 2.61 1.67C19.11 13.22 19.4 14 20.41 14h2.62c.75 0 1.13-.37.91-1.1-.24-.72-1.09-1.77-2.21-3.02-.62-.7-1.54-1.47-1.81-1.86-.4-.49-.28-.7 0-1.14 0 0 3.2-4.43 3.53-5.93Z" fill="#fff"/></g></symbol><symbol id="youtube"><g fill="none"><path d="M17.18 0H2.81C1.31 0 0 1.3 0 2.8v8.3C0 12.7 1.3 14 2.81 14h14.37A2.8 2.8 0 0 0 20 11.2V2.8c.1-1.5-1.2-2.8-2.8-2.8ZM7.03 10.4V3.6L13.87 7l-6.84 3.4Z" fill="#fff"/></g></symbol></svg>