<svg width="296" height="20" viewBox="0 0 296 20" fill="none" xmlns="http://www.w3.org/2000/svg"><path d="M17 9h-6V3H9v6H3v2h6v6h2v-6h6V9ZM38.11 9.47l-4.75-4.25c-.25-.25-.75-.25-1.12 0-.38.25-.25.75 0 1l4.12 3.75-4 3.75a.76.76 0 0 0 0 1c0 .12.38.25.5.25.13 0 .38-.13.5-.25l4.75-4.25a.59.59 0 0 0 0-1ZM53.4 9v2h14V9h-14ZM94.9 18l-3.7-3.67c1-1.3 1.7-2.98 1.7-4.87a8 8 0 0 0-8-7.96c-4.4 0-8 3.68-8 8.06a8 8 0 0 0 12.9 6.26l3.7 3.68 1.4-1.5Zm-10-2.48a6 6 0 0 1-6-5.96 6 6 0 0 1 12 0 6 6 0 0 1-6 5.96ZM110.3 19a.9.9 0 0 1-.8-.4c-5.4-6.1-6.7-7.5-7-7.9a5.4 5.4 0 0 1 4.4-8.7c1.3 0 2.5.5 3.5 1.3a5.46 5.46 0 0 1 9 4.1c0 1.3-.5 2.5-1.3 3.4l-7 7.9c-.2.2-.4.3-.8.3Zm-6-9.5c.3.4 3.5 4 6.1 6.9l6.2-7c.5-.5.7-1.2.7-2 0-1.8-1.5-3.3-3.3-3.3-1 0-2 .5-2.7 1.3-.3.3-.6.4-.9.4-.3 0-.6-.2-.8-.4-.7-.8-1.7-1.3-2.7-1.3-1.8 0-3.3 1.5-3.3 3.3-.1.9.3 1.6.7 2.1-.1 0-.1 0 0 0ZM133.14 12c.3 0 .5-.2.5-.5s-.2-.5-.5-.5-.5.2-.5.5.2.5.5.5Z" fill="#000"/><path d="M142.4 4h-2V2h-1v2h-8V2h-1v2h-2c-.6 0-1 .4-1 1v11c0 .5.4 1 1 1h14c.5 0 1-.5 1-1V5c0-.6-.5-1-1-1Zm0 12h-14V9h14v7Zm-14-8V5h2v2h1V5h8v2h1V5h2v3h-14Z" fill="#000"/><path d="M135.4 12c.3 0 .5-.2.5-.5s-.2-.5-.5-.5-.5.2-.5.5.2.5.5.5ZM137.64 12c.3 0 .5-.2.5-.5s-.2-.5-.5-.5-.5.2-.5.5.2.5.5.5ZM133.14 13c-.3 0-.5.2-.5.5s.2.5.5.5.5-.2.5-.5-.2-.5-.5-.5ZM130.9 12c.3 0 .5-.2.5-.5s-.2-.5-.5-.5-.5.2-.5.5.2.5.5.5ZM130.9 13c-.3 0-.5.2-.5.5s.2.5.5.5.5-.2.5-.5-.2-.5-.5-.5ZM135.4 13c-.3 0-.5.2-.5.5s.2.5.5.5.5-.2.5-.5-.2-.5-.5-.5ZM137.64 13c-.3 0-.5.2-.5.5s.2.5.5.5.5-.2.5-.5-.2-.5-.5-.5ZM139.9 12c.3 0 .5-.2.5-.5s-.2-.5-.5-.5-.5.2-.5.5.2.5.5.5ZM139.9 13c-.3 0-.5.2-.5.5s.2.5.5.5.5-.2.5-.5-.2-.5-.5-.5ZM167.7 4.3H153c-.3 0-.6.2-.6.5s.3.6.6.6h1.7v12c0 .3.3.6.6.6h10.2c.3 0 .6-.3.6-.6v-12h1.7c.3 0 .6-.3.6-.6s-.4-.5-.7-.5Zm-2.8 12.5h-9.1V5.4h9.1v11.4ZM158.6 3.2h3.4c.3 0 .6-.3.6-.6s-.2-.6-.5-.6h-3.5c-.3 0-.5.3-.5.6s.2.6.5.6Z" fill="#000"/><path d="M158.6 14c.3 0 .6-.3.6-.6V7.7c0-.3-.3-.6-.6-.6s-.6.3-.6.6v5.7c.1.3.3.6.6.6ZM162.1 14c.3 0 .6-.3.6-.6V7.7c0-.3-.3-.6-.6-.6s-.6.4-.6.6v5.7c0 .3.2.6.6.6ZM192.4 4.3 191.1 3l-5.7 5.7-5.72-5.7-1.29 1.3 5.71 5.7-5.7 5.7 1.28 1.3 5.71-5.7 5.71 5.7 1.3-1.3-5.72-5.7 5.71-5.7Z" fill="#000"/><path fill-rule="evenodd" clip-rule="evenodd" d="M204.61 7.34c.3-.29.77-.29 1.06 0l4.72 4.72 4.72-4.72a.75.75 0 0 1 1.06 1.07l-5.25 5.25c-.29.29-.76.29-1.06 0l-5.25-5.25a.75.75 0 0 1 0-1.07Z" fill="#000"/><path d="m235.4 3-6 5.8V15h12V8.8l-6-5.8Zm5 11h-10V9.2l5-4.8 5 4.8V14Z" fill="#000"/><path d="M233.4 13h1v-2.5h2V13h1V9.5h-4V13ZM260.4 1l2.1 6.5h6.9l-5.6 4L266 18l-5.6-4-5.6 4 2.2-6.5-5.6-4h6.9l2.1-6.5Z" fill="#000"/><path fill-rule="evenodd" clip-rule="evenodd" d="M284.4 4h2v2h-2V4Zm2 12h-2V7h2v9Z" fill="#000"/></svg>