<svg class="hero-text" width="461" height="350" viewBox="0 0 461 350" fill="none" xmlns="http://www.w3.org/2000/svg">
<g class="to-the-gorgeous">
<path fill-rule="evenodd" clip-rule="evenodd" d="M165.739 69.9996L165.538 70.1996C164.134 71.6996 162.529 72.3996 161.024 72.3996L163.833 67.4996C165.639 64.3996 163.933 61.3996 161.124 61.3996C158.817 61.3996 157.011 62.2996 155.305 65.2996L153.8 67.8996L152.596 69.9996L152.396 70.1996C150.189 72.6996 148.082 74.6996 146.777 74.6996C146.075 74.6996 145.774 74.1996 146.476 73.0996L152.897 61.8996H155.305L156.208 60.4996H153.7L156.509 55.5996H153.499L150.69 60.4996H147.981L147.078 61.8996H149.787L143.768 72.2996C142.463 74.4996 143.366 76.5996 145.774 76.5996C147.48 76.5996 149.486 75.2996 151.292 73.4996C151.292 77.2996 156.609 78.0996 159.82 73.9996H160.522C162.328 73.9996 165.137 72.8996 166.642 71.0996C166.642 70.5996 166.14 70.1996 165.739 69.9996ZM159.318 70.1996H159.218C158.215 70.1996 157.412 70.9996 157.412 71.9996C157.412 72.3996 157.512 72.6996 157.713 72.9996V73.0996C156.308 75.4996 152.897 75.0996 154.603 71.8996L156.91 67.9996L158.315 65.5996C160.422 61.9996 163.331 63.3996 161.525 66.4996L159.318 70.1996ZM207.375 69.9996L207.174 70.1996C204.967 72.6996 202.258 74.6996 200.151 74.6996C198.345 74.6996 197.242 73.4996 198.546 71.0996L198.847 70.5996C200.753 71.3996 204.465 70.9996 206.672 67.0996L207.074 66.3996C208.679 63.5996 207.174 61.5996 204.666 61.5996C202.258 61.5996 200.352 62.8996 199.048 65.0996L196.138 70.0996L195.937 70.2996C193.73 72.7996 191.623 74.7996 190.319 74.7996C189.617 74.7996 189.316 74.2996 190.018 73.1996L194.332 65.5996C195.636 63.2996 194.433 61.6996 192.727 61.6996C191.423 61.6996 190.018 62.3996 188.513 63.9996L193.329 55.6996H190.319L181.992 69.9996L181.791 70.1996C179.584 72.6996 177.477 74.6996 176.173 74.6996C175.471 74.6996 175.17 74.1996 175.872 73.0996L182.293 61.8996H184.701L185.604 60.4996H183.096L185.905 55.5996H182.895L180.086 60.4996H177.377L176.474 61.8996H179.183L173.163 72.2996C171.859 74.4996 172.762 76.5996 175.17 76.5996C176.374 76.5996 177.678 75.9996 178.982 74.9996L178.18 76.2996H181.189L185.704 68.3996C190.319 62.5996 192.326 63.3996 191.122 65.5996L187.209 72.3996C185.905 74.5996 186.808 76.6996 189.216 76.6996C191.021 76.6996 193.028 75.2996 194.834 73.4996C194.934 75.3996 196.539 76.6996 198.947 76.6996C202.358 76.6996 205.769 74.0996 208.177 71.1996C208.278 70.5996 207.776 70.1996 207.375 69.9996ZM201.656 65.7996C203.362 62.7996 206.472 63.2996 204.666 66.3996L204.265 67.0996C202.86 69.4996 200.853 69.4996 199.75 69.0996L201.656 65.7996ZM316.63 70.2L316.831 70C317.332 70.1 317.834 70.6 317.934 71.1C315.727 73.7 312.717 76.1 309.607 76.5H309.507C309.206 76.6 309.005 76.6 308.704 76.6C305.895 76.6 305.394 74.2 305.394 74.2L307.3 73.2C307.3 73.2 307.701 74.3 308.704 74.3C310.627 74.3 310.972 71.8542 311.333 69.3006C311.518 67.9902 311.707 66.6513 312.115 65.6C311.763 66.0472 311.369 66.5659 310.941 67.1299C310.03 68.3315 308.962 69.7389 307.801 71.1C305.293 74 302.484 76.6 299.976 76.6C298.07 76.6 297.066 75.3 297.367 73.7C295.963 75.1 294.057 76.6 292.451 76.6C290.746 76.6 290.044 75.2 290.846 73.1C289.743 73.7 288.438 74 287.535 74H286.833C283.623 78.1 278.205 77.3 278.305 73.4C276.299 75.2 273.791 76.6 271.383 76.6C268.875 76.6 267.37 75.3 267.269 73.4C264.761 75.8 262.353 77.2 259.946 78L257.638 81.9C255.431 85.6 251.017 85 251.017 82.1C251.017 79.9 253.625 78.2 257.638 77L258.34 75.8C257.237 76.4 256.234 76.8 255.431 76.8C253.725 76.8 252.822 75.8 252.822 74.4C251.217 75.8 249.512 76.8 248.007 76.8C245.599 76.8 244.696 74.7 246 72.5L249.211 67C249.512 66.4 249.411 65.8 249.01 65.3L248.609 64.8C246.201 68 244.997 69.5 243.592 71.2C242.088 73 239.278 74.1 237.473 74.1H236.77C233.56 78.2 228.242 77.4 228.242 73.6C225.734 75.9 223.427 77.4 221.019 78.1L218.711 82C216.504 85.7 212.09 85.1 212.09 82.2C212.09 80 214.698 78.3 218.711 77.1L219.514 75.7C218.41 76.3 217.407 76.7 216.605 76.7C214.197 76.7 213.294 74.6 214.598 72.4L218.812 65.1C220.016 62.9 222.323 61.6 223.928 61.6C225.734 61.6 227.039 63.3 227.039 64.5H228.844L222.123 76C224.53 75 226.637 73.2 229.145 70.3L229.346 70.1L230.55 68L232.055 65.4C233.76 62.4 235.566 61.5 237.874 61.5C240.683 61.5 242.389 64.5 240.583 67.6L237.773 72.5C239.278 72.5 240.884 71.8 242.288 70.3L242.489 70.1C244.495 67.8 246.301 65.3 247.605 63.4L247.305 63.1C246.301 61.7 246.402 60 248.107 58.5L249.712 60.2C249.11 60.7 249.11 61.4 249.512 61.9L251.217 63.9C252.12 65.1 252.622 66.2 251.619 68L248.609 73.2C247.906 74.3 248.207 74.8 248.91 74.8C250.214 74.8 252.321 72.8 254.528 70.3L254.729 70.1L257.638 65.1C258.842 62.9 261.15 61.6 262.755 61.6C264.561 61.6 265.865 63.3 265.865 64.5H267.671L260.949 76C263.357 75 265.464 73.2 267.972 70.3L268.172 70.1L271.082 65.1C272.386 62.9 274.292 61.6 276.7 61.6C279.208 61.6 280.713 63.6 279.108 66.4L278.707 67.1C276.5 71 272.787 71.4 270.881 70.6L270.58 71.1C269.276 73.5 270.38 74.7 272.185 74.7C274.292 74.7 277.001 72.7 279.208 70.2L279.409 70L280.613 67.9L282.118 65.3C283.823 62.3 285.629 61.4 287.937 61.4C290.746 61.4 292.451 64.4 290.646 67.5L287.836 72.4C289.341 72.4 290.947 71.7 292.351 70.2L292.552 70L297.267 61.9H300.277L294.458 72.1C294.431 72.1478 294.402 72.1975 294.372 72.2487C293.967 72.9466 293.402 73.9205 294.057 74.2C294.659 74.4 296.364 73.3 298.672 71.2L303.989 61.9H306.999L300.578 73.1C299.876 74.2 300.177 74.7 300.879 74.7C302.183 74.7 304.29 72.7 306.497 70.2L306.698 70C309.295 67.0408 311.807 63.4831 313.123 61.62C313.23 61.4683 313.329 61.3279 313.42 61.2L315.627 62.4C314.48 64.7455 314.132 67.2356 313.819 69.4789V69.479C313.611 70.9658 313.418 72.3441 313.018 73.5C314.222 72.6 315.526 71.5 316.63 70.2ZM276.8 66.4C278.606 63.3 275.496 62.8 273.791 65.8L271.885 69.1C272.988 69.5 274.995 69.5 276.399 67.1L276.8 66.4ZM214.799 81.5C214.799 82.4 215.802 82.5 216.404 81.4L217.809 78.9C215.501 79.8 214.799 80.7 214.799 81.5ZM217.508 73.1C216.805 74.2 217.106 74.7 217.809 74.7C219.012 74.7 220.919 73.3 222.725 70.4L225.032 66.4C226.537 63.7 223.326 63 221.721 65.8L217.508 73.1ZM236.168 70.2H236.269L238.476 66.5C240.282 63.4 237.372 62 235.265 65.6L233.861 68L231.553 71.9C229.848 75.1 233.259 75.5 234.663 73.1V73C234.463 72.7 234.362 72.4 234.362 72C234.362 71 235.165 70.2 236.168 70.2ZM253.525 81.5C253.525 82.4 254.528 82.5 255.13 81.4L256.535 78.9C254.227 79.8 253.525 80.7 253.525 81.5ZM256.234 73.1C255.531 74.2 255.832 74.7 256.535 74.7C257.738 74.7 259.645 73.3 261.451 70.4L263.758 66.4C265.263 63.7 262.052 63 260.447 65.8L256.234 73.1ZM286.031 70.2H286.131L288.338 66.5C290.144 63.4 287.234 62 285.128 65.6L283.723 68L281.416 71.9C279.71 75.1 283.121 75.5 284.526 73.1V73C284.325 72.7 284.225 72.4 284.225 72C284.225 71 285.027 70.2 286.031 70.2ZM130.525 66.7998H101.53V68.7998H130.525V66.7998ZM329.271 66.7998H358.266V68.7998H329.271V66.7998Z" fill="#766458"/>
</g>
<g class="welcome">
<path fill-rule="evenodd" clip-rule="evenodd" d="M163.532 0H171.257L170.053 44.9H155.506L153.499 26.4L151.493 44.9H136.845L135.742 0H143.367L143.968 37.2H144.771L149.687 0H157.312L162.228 37.2H163.03L163.532 0ZM195.436 37.2V45H174.468V0H195.436V7.7H182.093V18.5H192.727V26.2H182.093V37.1H195.436V37.2ZM216.906 45V37.2H206.171V0H198.546V45H216.906ZM233.159 28.4L240.884 26.6V40.2C240.884 42.8 238.677 44.9 236.169 44.9H224.631C222.023 44.9 219.916 42.7 219.916 40.2V4.7C219.916 2.1 222.023 0 224.631 0H236.169C238.677 0 240.884 2.1 240.884 4.7V13.8L233.159 15.6V7.6H227.641V37.1H233.159V28.4ZM266.467 4.7C266.467 2.1 264.26 0 261.752 0H250.214C247.606 0 245.499 2.1 245.499 4.7V40.1C245.499 42.6 247.606 44.8 250.214 44.8H261.752C264.26 44.8 266.467 42.7 266.467 40.1V4.7ZM253.224 7.7H258.742V37.2H253.224V7.7ZM291.549 0H299.173V44.9H291.549V22.8L288.439 34.2H280.914L277.904 22.8V44.9H270.279V0H277.904L284.726 21.7L291.549 0ZM323.954 45V37.2V37.1H310.611V26.2H321.245V18.5H310.611V7.7H323.954V0H302.986V45H323.954Z" fill="#81B3D3"/>
</g>
<g class="sedona">
<path fill-rule="evenodd" clip-rule="evenodd" d="M246.101 215.7C270.179 215.7 287.636 198.6 287.636 174.4C287.636 151.8 267.671 135.9 246.101 135.9C224.531 135.9 204.566 151.8 204.566 174.4C204.566 198.6 222.022 215.7 246.101 215.7ZM246 196.8C234.363 196.8 224.832 187.4 224.832 174.5C224.832 164.2 234.463 154.7 246 154.7C257.638 154.7 267.169 164.2 267.169 174.5C267.169 187.4 257.638 196.8 246 196.8ZM31.5025 152.6C36.3182 152.6 40.8329 154.6 44.4446 157.6L52.1698 142.6C45.5482 138.8 36.2178 136.4 28.6934 136.4C13.6444 136.4 2.80914 146.3 2.80914 161.5C2.80914 176 10.8353 179.1 23.0751 182.7C23.315 182.769 23.5661 182.839 23.8261 182.912L23.8288 182.913L23.8303 182.913L23.8316 182.913C28.1382 184.119 34.9136 186.016 34.9136 191.2C34.9136 196.4 30.0979 198.7 25.4829 198.7C18.761 198.7 13.0424 195.3 8.12644 191L0 206.5C7.62481 211.8 16.9552 215 26.3859 215C33.9103 215 41.7358 213 47.6551 208C53.5743 203 55.3802 195.3 55.3802 187.9C55.3802 175.8 47.2538 170.6 36.8198 167.5L31.8035 166C28.4927 165 23.1754 163.3 23.1754 158.9C23.1754 154.7 27.8908 152.6 31.5025 152.6ZM91.899 167.3V154.8L115.175 154.9V138.4H72.4357V213.2H115.175V196.7H91.899V183.8H113.87V167.3H91.899ZM129.622 138.4H157.312C178.18 138.4 195.436 154.8 195.436 175.8C195.436 196.8 178.079 213.2 157.312 213.2H129.622V138.4ZM149.185 196.7H153.6C165.238 196.7 175.17 190.3 175.17 175.8C175.17 162.4 166.341 154.9 153.8 154.9H149.185V196.7ZM297.97 138.4H317.533L353.249 184.2H353.45V138.4H373.014V213.2H353.45L317.734 167.3H317.533V213.2H297.97V138.4ZM403.212 213.2L408.429 200.2H435.317L440.233 213.2H461L432.708 138.4H411.439L382.545 213.2H403.212ZM421.873 161.5H422.073L430.1 185.3H413.847L421.873 161.5Z" fill="white"/>
</g>
<g class="grand-canyon">
<path fill-rule="evenodd" clip-rule="evenodd" d="M80.4618 277.6C80.4618 277.9 80.3614 278.2 80.2611 278.5L80.2611 278.5C80.1608 278.8 79.9601 279.1 79.7595 279.3C79.5588 279.5 79.2578 279.7 78.9569 279.9C78.6559 280 78.2546 280.1 77.8533 280.1C77.3516 280.1 76.9503 280 76.549 279.8L76.5489 279.8C76.1476 279.6 75.7464 279.4 75.4454 279.1C75.2073 278.863 75.0948 278.625 74.9587 278.338L74.9587 278.338C74.9229 278.263 74.8854 278.184 74.8435 278.1C74.7432 277.7 74.6428 277.3 74.6428 276.8C74.6428 275.9 74.8435 275.2 75.1445 274.4C75.4454 273.7 75.8467 273 76.4487 272.5L76.4488 272.5L76.4488 272.5C76.6495 272.3 76.9504 272 77.2513 271.8C77.5523 271.6 77.8533 271.4 78.1542 271.3C78.3432 271.237 78.4926 271.135 78.6273 271.043L78.6273 271.043C78.7071 270.988 78.7818 270.937 78.8565 270.9C78.9332 270.862 78.9952 270.838 79.0482 270.818C79.1338 270.786 79.1958 270.762 79.2578 270.7L80.6624 272.7C80.6017 272.73 80.5317 272.761 80.4553 272.794C80.2795 272.87 80.0697 272.961 79.8598 273.1C79.5588 273.2 79.2578 273.4 78.9569 273.6C78.6559 273.8 78.4552 274.1 78.2546 274.4C78.0539 274.7 77.9536 275 77.9536 275.4C78.6559 275.4 79.1575 275.6 79.6591 276C80.2611 276.3 80.4618 276.9 80.4618 277.6ZM88.3875 277.6C88.3875 277.9 88.2872 278.2 88.1869 278.5L88.1869 278.5C88.0866 278.8 87.8859 279.1 87.6853 279.3C87.4846 279.5 87.1836 279.7 86.8827 279.9C86.5817 280 86.1804 280.1 85.7791 280.1C85.2774 280.1 84.8761 280 84.4748 279.8L84.4747 279.8C84.0734 279.6 83.6722 279.4 83.3712 279.1L83.3712 279.1C83.1705 278.8 82.9699 278.5 82.7693 278.1C82.6689 277.7 82.5686 277.3 82.5686 276.8C82.5686 275.9 82.7693 275.2 83.0702 274.4C83.3712 273.7 83.7725 273 84.3745 272.5L84.3746 272.5L84.3746 272.5C84.5753 272.3 84.8762 272 85.1771 271.8C85.4781 271.6 85.7791 271.4 86.08 271.3C86.269 271.237 86.4184 271.135 86.553 271.043C86.6329 270.988 86.7076 270.937 86.7823 270.9C86.859 270.862 86.921 270.838 86.9739 270.818C87.0596 270.786 87.1216 270.762 87.1836 270.7L88.5882 272.7C88.5274 272.73 88.4575 272.761 88.3811 272.794C88.2053 272.87 87.9954 272.961 87.7856 273.1C87.4846 273.2 87.1837 273.4 86.8827 273.6L86.8827 273.6C86.5817 273.8 86.381 274.1 86.1804 274.4C85.9797 274.7 85.8794 275 85.8794 275.4C86.5817 275.4 87.0833 275.6 87.5849 276C88.0866 276.3 88.3875 276.9 88.3875 277.6ZM364.085 296.1L364.386 295.8C364.676 295.916 365.033 296.165 365.36 296.393L365.36 296.394C365.599 296.56 365.822 296.716 365.991 296.8C362.781 300.4 359.169 303.8 356.059 303.8C354.153 303.8 352.949 302.8 352.748 301.3C350.842 302.8 348.936 303.8 347.431 303.8C345.123 303.8 343.919 302.4 344.12 300.5C341.913 302.4 339.706 303.8 337.699 303.8C334.589 303.8 333.485 301.2 335.091 298.4L340.007 289.8C341.712 287 339.104 286 333.285 293.3L327.466 303.4H323.653L325.058 301C323.152 302.7 321.145 303.8 319.339 303.8C317.433 303.8 316.229 302.8 316.029 301.3C314.122 302.8 312.216 303.8 310.711 303.8C308.504 303.8 307.4 302.5 307.4 300.8C305.394 302.6 303.287 303.8 301.381 303.8C298.271 303.8 297.167 301.2 298.772 298.4L302.785 291.4C303.287 290.6 303.086 289.8 302.585 289.2L302.083 288.6L301.615 289.228L301.614 289.229C299.018 292.711 297.675 294.511 296.064 296.4C296.102 296.477 296.125 296.538 296.146 296.591L296.146 296.591C296.178 296.677 296.202 296.739 296.264 296.8C292.05 301.7 288.138 304.4 284.225 305.6L281.316 310.6C278.607 315.3 272.988 314.5 272.988 310.9C272.988 308 276.199 306 281.316 304.4L282.319 302.7C281.215 303.4 279.811 303.9 278.205 303.9C272.788 303.9 272.286 298.8 274.995 294.2L276.099 292.2C272.988 290.6 271.283 287.7 271.283 284.7C271.283 282.1 272.487 279.5 275.196 277.6L276.4 279.8C274.794 281.1 273.992 282.8 273.992 284.6C273.992 286.7 275.196 288.8 277.403 290L283.322 279.8C285.028 276.9 287.536 275.4 289.643 275.4C301.581 275.4 295.06 293.5 281.516 293.5C280.714 293.5 280.011 293.4 279.309 293.3L279.309 293.3L278.205 295.2C275.898 299.1 276.4 301.7 279.008 301.7C282.018 301.7 284.325 299.1 286.332 295.6L286.733 294.9H290.445L285.63 303.1C288.639 301.8 291.348 299.5 294.458 295.9L294.157 295.6C296.385 293.024 298.376 290.211 299.989 287.933L299.996 287.922C300.196 287.639 300.39 287.365 300.578 287.1L300.277 286.7C298.973 285 299.073 282.8 301.281 280.9L303.287 283.1C302.585 283.8 302.585 284.6 303.086 285.3L305.193 287.9C306.397 289.4 306.999 290.7 305.695 293L301.882 299.6C300.98 301.1 301.481 301.7 302.284 301.7C303.989 301.7 306.698 299.2 309.407 296L309.608 295.8L313.32 289.5C314.925 286.7 317.834 285.1 319.841 285.1C322.349 285.1 323.954 287.3 323.854 288.9H325.76L319.64 299.6C318.737 301.1 319.239 301.7 320.042 301.7C321.747 301.7 324.456 299.2 327.165 296L327.466 295.7C327.666 295.7 327.767 295.8 327.867 295.9L333.987 285.4H337.799L336.395 287.9C338.301 286 340.107 285.1 341.712 285.1C343.819 285.1 345.324 287.2 343.719 290.1L338.201 299.7C337.298 301.2 337.799 301.8 338.602 301.8C340.307 301.8 343.016 299.3 345.725 296.1L346.026 295.8C346.026 295.8 346.126 295.9 346.227 295.9L349.939 289.5C351.544 286.7 354.454 285.1 356.46 285.1C358.065 285.1 359.269 286 359.971 287.1L365.59 277.5H369.402L356.56 299.7C355.657 301.2 356.159 301.8 356.962 301.8C358.667 301.8 361.376 299.3 364.085 296.1ZM289.643 278.8C288.639 278.8 287.335 279.7 286.232 281.6L280.714 291.1H281.516C291.449 291.1 295.662 278.8 289.643 278.8ZM275.998 310.4C275.998 311.4 277.302 311.6 278.105 310.2L279.811 307.2C276.901 308.3 275.998 309.4 275.998 310.4ZM311.815 301.7C313.32 301.7 315.627 300 317.935 296.4L320.945 291.2C322.851 287.8 318.737 286.9 316.731 290.4L311.413 299.6C310.511 301.1 311.012 301.7 311.815 301.7ZM348.534 301.7C350.139 301.7 352.447 300 354.754 296.2L357.664 291.2C359.57 287.8 355.457 286.9 353.45 290.4L348.133 299.6C347.23 301.1 347.732 301.7 348.534 301.7ZM108.955 275.5C116.479 275.5 115.977 285.1 108.252 287.7C115.576 292.6 110.259 306.2 98.922 306.2C85.5786 306.2 83.1707 291.6 91.1968 286.5L92.7017 288.4C88.9897 290.8 88.2874 296.2 90.8959 299.8C91.4012 299.213 91.7651 298.625 92.1656 297.978C92.2423 297.855 92.3202 297.729 92.4008 297.6L102.634 279.9C104.34 277 106.848 275.5 108.955 275.5ZM93.3037 302C94.8086 302.8 96.5141 303.3 98.8216 303.3C108.052 303.3 111.563 290.2 102.634 288.3L101.631 288.2L95.2099 299.3C94.6079 300.3 94.006 301.2 93.3037 302ZM106.045 280.7L102.935 286C106.848 285.9 108.955 285.1 110.46 282.3C112.366 278.7 108.854 275.9 106.045 280.7ZM143.567 304.1C141.059 304.1 139.855 302.2 140.457 300C137.748 302.3 134.638 304.1 131.428 304.3C128.217 304.3 126.211 302.3 126.311 299.7C123.602 302.3 120.191 304.3 116.88 304.3C112.366 304.3 110.259 300.5 112.667 296.5L116.68 289.7C118.285 286.9 120.693 285.3 123.803 285.3C126.913 285.3 128.819 287.9 126.813 291.4L126.311 292.3C123.402 297.2 118.787 297.7 116.379 296.7L115.978 297.4C114.272 300.4 115.677 301.9 117.984 301.9C120.693 301.9 124.204 299.4 126.913 296.2L127.214 295.9C127.264 295.95 127.314 295.975 127.365 296C127.415 296.025 127.465 296.05 127.515 296.1L131.327 289.6C132.933 286.8 135.341 285.2 138.451 285.2C141.561 285.2 143.467 287.8 141.46 291.3L140.959 292.2H137.849L138.35 291.3C140.658 287.4 136.745 286.7 134.538 290.5L130.625 297.3C128.92 300.3 130.324 301.8 132.632 301.8C135.341 301.8 138.852 299.3 141.561 296.1L141.862 295.8C142.062 295.9 142.263 296 142.464 296.2L146.276 289.6C147.881 286.8 150.791 285.2 152.797 285.2C155.305 285.2 156.911 287.4 156.81 289H159.018L152.898 299.7C151.995 301.2 152.496 301.8 153.299 301.8C155.005 301.8 157.713 299.3 160.422 296.1L160.723 295.8C160.773 295.85 160.823 295.875 160.874 295.9C160.924 295.925 160.974 295.95 161.024 296L167.044 285.6H170.856L163.432 298.5L163.401 298.55C162.894 299.357 162.046 300.708 162.93 301.1C163.633 301.4 165.84 299.9 168.749 297.3L175.471 285.5H179.284L171.157 299.7C170.254 301.2 170.756 301.8 171.558 301.8C173.264 301.8 175.973 299.3 178.682 296.1L178.782 295.9L178.682 295.8C181.502 292.492 184.323 288.569 186.123 286.066C186.499 285.542 186.831 285.081 187.109 284.7L189.918 286.2C188.444 289.138 187.985 292.376 187.575 295.272L187.575 295.272C187.315 297.107 187.074 298.804 186.607 300.2C188.112 299.2 189.818 297.7 191.222 296.1L191.523 295.8H191.624L195.336 289.5C196.941 286.7 199.349 285.1 202.459 285.1C205.569 285.1 207.475 287.7 205.469 291.2L204.967 292.1C202.058 297 197.443 297.5 195.035 296.5L194.633 297.2C192.928 300.2 194.332 301.7 196.64 301.7C199.349 301.7 202.86 299.2 205.569 296L205.87 295.7C206.372 295.9 206.974 296.5 207.275 297C204.164 300.6 199.85 304 195.536 304C192.426 304 190.52 302.2 190.42 299.7C188.012 301.8 185.303 303.5 182.494 303.9H182.394C181.992 304 181.691 304 181.29 304C177.779 304 177.076 300.9 177.076 300.9L179.484 299.7C179.484 299.7 179.986 301.1 181.29 301.1C183.683 301.1 184.138 297.982 184.611 294.744C184.851 293.095 185.096 291.416 185.604 290.1C185.178 290.647 184.714 291.267 184.217 291.933L184.216 291.933C183.075 293.461 181.754 295.229 180.287 296.9C180.287 296.95 180.312 296.975 180.337 297C180.362 297.025 180.387 297.05 180.387 297.1C177.177 300.7 173.565 304.1 170.455 304.1C168.047 304.1 166.843 302.5 167.244 300.5C165.438 302.2 163.131 304.1 161.024 304.1C159.118 304.1 158.215 302.7 158.616 300.7C156.409 302.7 154.202 304.1 152.195 304.1C150.289 304.1 149.085 303.1 148.885 301.6C146.978 303.1 145.072 304.1 143.567 304.1ZM202.459 291.2C204.766 287.3 200.854 286.6 198.647 290.4L196.239 294.6C197.643 295.1 200.151 295.2 201.957 292.1L202.459 291.2ZM149.587 290.5L144.27 299.7C143.367 301.2 143.868 301.7 144.671 301.8C146.176 301.8 148.483 300.1 150.791 296.5L153.801 291.3C155.707 287.9 151.593 287 149.587 290.5ZM123.803 291.2C126.111 287.3 122.198 286.6 119.991 290.4L117.583 294.6C118.987 295.1 121.495 295.2 123.301 292.1L123.803 291.2ZM249.01 304.1C253.324 304.1 257.638 300.7 260.749 297.1C260.448 296.6 259.846 296 259.344 295.8L259.043 296.1C256.334 299.3 252.823 301.8 250.114 301.8C247.806 301.8 246.402 300.3 248.107 297.3L248.509 296.6C250.917 297.6 255.532 297.1 258.441 292.2L258.943 291.3C260.949 287.8 259.043 285.2 255.933 285.2C252.823 285.2 250.415 286.8 248.81 289.6L245.098 295.9C245.098 295.9 244.997 295.9 244.997 295.8L244.696 296.1C241.988 299.3 239.279 301.8 237.573 301.8C236.771 301.8 236.269 301.2 237.172 299.7L242.69 290.1C244.295 287.2 242.79 285.1 240.683 285.1C239.078 285.1 237.272 286 235.366 288L241.486 277.5H237.573L226.838 296C226.788 295.95 226.713 295.9 226.638 295.85L226.638 295.85L226.637 295.85C226.562 295.8 226.487 295.75 226.437 295.7L226.136 296C223.427 299.2 220.718 301.7 219.013 301.7C218.21 301.7 217.709 301.1 218.611 299.6L226.738 285.4H229.848L230.952 283.6H227.841L231.453 277.4H227.641L224.029 283.6H220.618L219.514 285.4H223.026L215.401 298.6C213.796 301.4 214.899 304 218.009 304C219.916 304 221.922 302.8 224.029 301L222.524 303.6H226.337L232.156 293.6C237.974 286.3 240.583 287.2 238.978 290L234.062 298.6C232.456 301.4 233.56 304 236.67 304C238.978 304 241.586 302.2 243.994 299.8C243.994 302.3 245.9 304.1 249.01 304.1ZM252.12 290.4C254.328 286.6 258.24 287.3 255.933 291.2L255.431 292.1C253.625 295.2 251.117 295.1 249.713 294.6L252.12 290.4ZM237.272 331.8L236.971 332.1C234.262 335.3 231.554 337.8 229.848 337.8C229.045 337.8 228.544 337.2 229.447 335.7L234.965 326.1C236.57 323.2 235.065 321.1 232.958 321.1C231.353 321.1 229.547 322 227.641 323.9L229.045 321.4H225.233L219.113 332C219.013 331.95 218.938 331.9 218.862 331.85L218.862 331.85C218.787 331.8 218.712 331.75 218.612 331.7L218.311 332C216.605 333.9 214.498 334.8 212.592 334.8L216.204 328.6C218.511 324.6 216.404 320.9 212.793 320.9C209.883 320.9 207.576 322.1 205.368 325.9L203.462 329.1L201.857 331.9C201.807 331.85 201.757 331.825 201.706 331.8C201.656 331.775 201.606 331.75 201.556 331.7L201.255 332C198.145 335.6 195.436 337.9 192.426 339.2L202.86 321.4H199.048L192.326 333.1C189.417 335.8 187.109 337.3 186.407 337C185.522 336.608 186.37 335.257 186.877 334.45L186.908 334.4L194.332 321.5H190.52L184.4 332C184.35 331.95 184.3 331.925 184.25 331.9C184.2 331.875 184.149 331.85 184.099 331.8L183.798 332.1C181.089 335.3 178.381 337.8 176.675 337.8C175.872 337.8 175.371 337.2 176.274 335.7L181.792 326.1C183.397 323.2 181.892 321.1 179.785 321.1C178.18 321.1 176.374 322 174.468 323.9L175.872 321.4H172.06L165.94 331.9C165.84 331.8 165.739 331.7 165.539 331.7L165.238 332C162.529 335.2 159.82 337.7 158.115 337.7C157.312 337.7 156.81 337.1 157.713 335.6L163.833 324.9H161.626C161.726 323.3 160.121 321.1 157.613 321.1C155.606 321.1 152.697 322.7 151.092 325.5L147.179 332.3L147.179 332.3C146.878 332.1 146.577 331.9 146.376 331.8L146.075 332.1C143.367 335.3 139.956 337.8 136.243 337.8C133.635 337.8 132.03 335.2 134.337 331.3L135.441 329.4L135.441 329.4C136.143 329.5 136.846 329.6 137.648 329.6C141.661 329.6 146.276 327.5 149.286 322.3C150.39 320.4 150.791 318.7 150.791 317.2C150.791 313.8 148.584 311.5 145.775 311.5C143.668 311.5 141.159 313 139.454 315.9L133.535 326.1C131.328 324.9 130.124 322.8 130.124 320.7C130.124 318.9 130.926 317.2 132.531 315.9L131.328 313.7C128.619 315.6 127.415 318.2 127.415 320.8C127.415 323.8 129.12 326.7 132.23 328.3L131.127 330.3C128.418 334.9 130.023 340 135.441 340C139.655 340 142.865 338.1 145.474 335.6C144.671 338 145.875 340 148.584 340C150.089 340 151.995 339 153.901 337.5C154.102 339 155.306 340 157.212 340C159.018 340 161.024 338.9 162.93 337.2L161.526 339.6H165.338L171.157 329.5C176.976 322.2 179.585 323.2 177.879 326L172.963 334.6C171.358 337.4 172.461 340 175.571 340C177.578 340 179.885 338.6 182.093 336.6C181.591 338.7 182.594 340 184.501 340C186.306 340 188.413 338.5 190.119 336.9L188.012 340.5C182.895 342 179.585 344.1 179.585 347C179.585 350.6 185.203 351.4 187.912 346.7L190.821 341.7C194.032 340.7 197.142 338.7 200.452 335.5C199.951 340.8 206.974 342 211.288 336.6H212.09C213.495 336.6 215.401 336.1 217.107 335.1L214.598 339.5H218.411L224.23 329.4C230.049 322.1 232.657 323.1 230.952 325.9L226.036 334.5C224.43 337.3 225.534 339.9 228.644 339.9C231.754 339.9 235.366 336.5 238.576 332.9C238.476 332.6 237.774 332 237.272 331.8ZM142.564 317.6C143.668 315.7 144.972 314.8 145.975 314.8C147.38 314.8 148.082 315.7 148.082 317.1C148.082 320.6 143.768 327 137.849 327H137.046L142.564 317.6ZM156.008 332.4C153.7 336 151.393 337.7 149.888 337.7C149.085 337.7 148.584 337.1 149.487 335.6L154.804 326.4C156.81 322.9 160.924 323.8 159.018 327.2L156.008 332.4ZM184.902 346.2C184.099 347.6 182.795 347.4 182.795 346.4C182.795 345.4 183.698 344.3 186.607 343.2L184.902 346.2ZM210.585 332H210.385C209.181 332 208.178 333 208.178 334.3C208.178 334.8 208.278 335.2 208.579 335.6V335.7C206.773 338.8 202.459 338.2 204.666 334.2L207.576 329.2L209.381 326.1C212.09 321.6 215.702 323.4 213.395 327.3L210.585 332ZM324.055 331.8C324.556 331.9 325.258 332.5 325.459 333.1C322.65 336.4 318.737 339.5 314.925 340.2H314.825C314.423 340.3 314.122 340.3 313.721 340.3H313.721C310.21 340.3 309.507 337.2 309.507 337.2L311.915 336C311.915 336 312.417 337.4 313.721 337.4C316.114 337.4 316.569 334.283 317.042 331.044V331.044C317.282 329.396 317.527 327.716 318.035 326.4C317.624 326.928 317.178 327.523 316.698 328.165L316.697 328.166L316.697 328.166L316.697 328.166C315.538 329.716 314.178 331.533 312.617 333.3C309.407 336.9 305.795 340.3 302.685 340.3C299.575 340.3 298.973 338.6 298.973 335.4V332.4L294.659 339.9H290.847L292.953 336.2C290.245 338.5 287.235 340.2 284.125 340.2C281.015 340.2 279.008 338.3 279.008 335.8C276.5 338.3 273.891 340.2 271.483 340.2C269.076 340.2 267.872 338.6 268.273 336.6C266.467 338.3 264.16 340.2 262.053 340.2C260.448 340.2 259.545 339.2 259.545 337.7C257.739 339 255.833 339.8 253.926 340.1H253.826C253.425 340.2 253.124 340.2 252.722 340.2C249.603 340.2 248.701 337.754 248.538 337.208C247.611 338.356 246.819 339.315 246.302 339.9C246.207 339.825 246.109 339.749 246.009 339.673C245.583 339.346 245.141 339.006 244.897 338.6C248.408 334.6 257.137 323 258.742 320.8L261.551 322.3C260.077 325.239 259.618 328.476 259.208 331.372C258.948 333.207 258.707 334.904 258.24 336.3C258.547 336.038 258.893 335.757 259.251 335.465L259.251 335.464C259.713 335.088 260.197 334.694 260.648 334.3L268.072 321.6H271.885L264.461 334.5L264.429 334.55C263.923 335.357 263.075 336.709 263.959 337.1C264.661 337.4 266.868 335.9 269.778 333.3L276.5 321.5H280.312L272.186 335.7C271.283 337.2 271.784 337.8 272.587 337.8C274.293 337.8 277.001 335.3 279.71 332.1L280.011 331.8C280.011 331.8 280.112 331.9 280.212 331.9L283.924 325.5C285.529 322.7 287.937 321.1 291.047 321.1C294.157 321.1 296.063 323.7 294.057 327.2L293.555 328.1H290.445L290.947 327.2C293.254 323.3 289.342 322.6 287.134 326.4L283.222 333.2C281.516 336.2 282.921 337.7 285.228 337.7C287.937 337.7 291.448 335.2 294.157 332L294.458 331.7C294.659 331.8 294.96 332 295.161 332.2L305.996 313.4H309.808L304.391 322.8C308.303 319.2 314.022 321.2 310.51 327.3L309.507 329.1C307.701 332.2 304.892 333.9 302.183 333.6V335.2C302.183 337 302.986 337.8 303.789 337.8C305.494 337.8 308.203 335.3 310.912 332.1L311.213 331.8C314.034 328.493 316.854 324.569 318.654 322.066C319.031 321.543 319.362 321.081 319.64 320.7L322.449 322.2C320.975 325.139 320.517 328.376 320.106 331.272C319.846 333.107 319.606 334.804 319.139 336.2C320.643 335.2 322.349 333.7 323.754 332.1L324.055 331.8ZM248.702 337.004L250.917 335.9C250.917 335.9 251.418 337.3 252.722 337.3C255.116 337.3 255.571 334.183 256.043 330.944C256.284 329.296 256.529 327.616 257.036 326.3C256.056 327.654 251.728 333.249 248.702 337.004ZM301.28 328.2L300.177 330.1C301.08 332.6 304.391 331.2 305.494 329.2L307.3 326.1C308.705 323.8 305.695 322.1 301.28 328.2ZM325.359 335.7C324.155 335.7 323.152 336.7 323.152 337.9C323.152 339.1 324.055 340.1 325.359 340.1C326.563 340.1 327.566 339.2 327.566 337.9C327.566 336.7 326.563 335.7 325.359 335.7ZM329.372 334.2H325.559L337.498 313.5H341.311L329.372 334.2ZM354.554 335.6C354.453 335.9 354.353 336.2 354.353 336.5C354.353 337.2 354.654 337.8 355.156 338.1C355.657 338.5 356.159 338.7 356.861 338.7C356.861 339.1 356.761 339.4 356.56 339.7C356.36 340 356.159 340.3 355.858 340.5C355.557 340.7 355.256 340.9 354.955 341C354.745 341.139 354.535 341.23 354.359 341.306C354.283 341.339 354.213 341.37 354.152 341.4L355.557 343.4C355.619 343.338 355.681 343.315 355.767 343.282C355.82 343.262 355.882 343.238 355.958 343.2C356.033 343.163 356.108 343.112 356.188 343.057C356.322 342.965 356.472 342.863 356.661 342.8C356.962 342.7 357.263 342.5 357.563 342.3C357.864 342.1 358.165 341.8 358.366 341.6C358.968 341.1 359.369 340.4 359.67 339.7C359.971 338.9 360.172 338.2 360.172 337.3C360.172 336.8 360.072 336.4 359.971 336L359.971 336C359.929 335.917 359.892 335.837 359.856 335.762C359.72 335.475 359.608 335.237 359.369 335C359.068 334.7 358.667 334.5 358.266 334.3C357.864 334.1 357.463 334 356.962 334C356.56 334 356.159 334.1 355.858 334.2L355.858 334.2C355.557 334.4 355.256 334.6 355.055 334.8C354.855 335 354.654 335.3 354.554 335.6L354.554 335.6ZM346.728 335.6C346.628 335.9 346.528 336.2 346.528 336.5C346.528 337.2 346.728 337.8 347.33 338.1C347.832 338.5 348.333 338.7 349.036 338.7C349.036 339.1 348.935 339.4 348.735 339.7C348.534 340 348.333 340.3 348.032 340.5L348.032 340.5C347.731 340.7 347.43 340.9 347.13 341C346.829 341.2 346.628 341.3 346.327 341.4L347.731 343.4C347.793 343.338 347.855 343.315 347.941 343.282C347.994 343.262 348.056 343.238 348.133 343.2C348.208 343.163 348.282 343.112 348.362 343.057C348.497 342.965 348.646 342.863 348.835 342.8C349.136 342.7 349.437 342.5 349.738 342.3L349.738 342.3C350.039 342.1 350.34 341.8 350.541 341.6C351.143 341.1 351.544 340.4 351.845 339.7C352.146 338.9 352.346 338.2 352.346 337.3C352.346 336.8 352.246 336.4 352.146 336C351.945 335.6 351.745 335.3 351.544 335C351.243 334.7 350.842 334.5 350.44 334.3C350.039 334.1 349.638 334 349.136 334C348.735 334 348.333 334.1 348.032 334.2L348.032 334.2C347.731 334.4 347.43 334.6 347.23 334.8C347.029 335 346.829 335.3 346.728 335.6Z" fill="white"/>
</g>
</svg>
